<?xml version="1.0" encoding="UTF-8"?>
<svg version="1.1" xmlns="http://www.w3.org/2000/svg" width="512" height="512">
<path d="M0 0 C168.96 0 337.92 0 512 0 C512 168.96 512 337.92 512 512 C343.04 512 174.08 512 0 512 C0 343.04 0 174.08 0 0 Z " fill="#010101" transform="translate(0,0)"/>
<path d="M0 0 C1.02461334 -0.0071553 2.04922668 -0.01431061 3.10488892 -0.02168274 C4.22853348 -0.02437164 5.35217804 -0.02706055 6.50987244 -0.02983093 C7.69393677 -0.03640213 8.8780011 -0.04297333 10.09794617 -0.04974365 C14.02683365 -0.06949566 17.95570775 -0.08114844 21.8846283 -0.09111023 C23.2399542 -0.09515924 24.5952799 -0.09927621 25.95060539 -0.10346031 C32.32260388 -0.12251286 38.69459081 -0.13674045 45.0666123 -0.14507228 C52.40519452 -0.1548277 59.74347374 -0.18110216 67.08194929 -0.22157317 C72.76365022 -0.25182361 78.44526478 -0.2665498 84.12704462 -0.26985329 C87.51558951 -0.27219479 90.90381077 -0.28103559 94.29226875 -0.30631447 C98.08119242 -0.33072153 101.86933134 -0.32973704 105.65830994 -0.32279968 C107.32252235 -0.34201477 107.32252235 -0.34201477 109.02035522 -0.36161804 C119.08928033 -0.29467053 126.83900569 2.27555026 134.2230072 9.23750305 C137.16269889 12.33229018 139.71402665 15.63769058 142.22447205 19.08467102 C143.34475503 20.58624967 144.46721114 22.08620908 145.59165955 23.58467102 C146.15852478 24.34135071 146.72539001 25.0980304 147.30943298 25.87763977 C151.49188585 31.37228107 155.86154142 36.74887794 160.347785 41.99876213 C162.03697205 44.14717102 162.03697205 44.14717102 163.52403355 46.67256355 C166.28335356 50.98111484 168.37739139 53.70207589 173.43676567 55.05898666 C177.76083887 55.39207683 181.98481392 55.40581439 186.31602478 55.31074524 C187.9676126 55.3112391 189.61920418 55.31619506 191.27076721 55.32525635 C194.81658665 55.33516074 198.36030839 55.3136649 201.90583611 55.26740646 C207.51706529 55.19434252 213.12702619 55.19141304 218.73864746 55.19749451 C227.61748174 55.19877817 236.49534154 55.15267949 245.3739062 55.08657658 C261.26538805 54.96933588 277.15708469 54.92315639 293.04896885 54.90848744 C298.62151109 54.9013471 304.19326963 54.87050013 309.76558101 54.8198669 C313.23821196 54.79166517 316.71077633 54.77961341 320.18350601 54.77127266 C321.7875011 54.76385388 323.39148226 54.74951717 324.99534416 54.72755623 C336.21837324 54.57808042 344.63756936 55.54836235 353.28697205 63.20967102 C354.0758783 63.88127258 354.86478455 64.55287415 355.67759705 65.24482727 C364.12684654 75.63852325 363.66348127 86.10722542 363.34947205 98.83467102 C363.3243434 100.61523846 363.30153833 102.39584029 363.28111267 104.1764679 C363.22651161 108.50089778 363.14049708 112.82364705 363.03697205 117.14717102 C361.55197205 117.64217102 361.55197205 117.64217102 360.03697205 118.14717102 C358.97032906 119.9014668 358.97032906 119.9014668 358.18687439 122.11836243 C357.69022781 123.38832565 357.69022781 123.38832565 357.18354797 124.6839447 C356.83353729 125.61282501 356.48352661 126.54170532 356.12290955 127.49873352 C355.56200119 128.94631546 355.56200119 128.94631546 354.98976135 130.42314148 C353.78651056 133.53549897 352.59897236 136.65358433 351.41197205 139.77217102 C350.63567694 141.78950195 349.85834378 143.80643374 349.0799408 145.82295227 C347.51716753 149.87470488 345.9602808 153.92865057 344.40708923 157.98408508 C341.6493365 165.17233519 338.84094548 172.34054204 336.02388 179.50572205 C335.67580292 180.39206329 335.32772583 181.27840454 334.96910095 182.19160461 C334.63556107 183.03403214 334.30202118 183.87645966 333.95837402 184.74441528 C333.36937385 186.28036115 332.80865108 187.82764694 332.28536987 189.38720703 C330.69196826 194.10130682 328.76137548 197.02845903 325.2127533 200.49482727 C324.74765854 200.95521896 324.28256378 201.41561066 323.80337524 201.88995361 C322.33015662 203.342075 320.84025845 204.77561645 319.34947205 206.20967102 C318.36985373 207.17274337 317.39132938 208.13692981 316.41392517 209.10224915 C311.63855359 213.79507377 306.77860185 218.36366402 301.68223572 222.70747375 C300.0161858 224.0999693 300.0161858 224.0999693 298.67521667 225.71090698 C295.80757134 228.22499785 291.99507736 227.61503198 288.3533783 227.61592102 C287.50146408 227.62353455 286.64954987 227.63114807 285.77182007 227.63899231 C283.97050405 227.64979499 282.16912539 227.65264572 280.36778259 227.64814758 C277.61256849 227.64717564 274.86014295 227.68878331 272.10533142 227.73310852 C270.35468619 227.73831588 268.60403127 227.74100371 266.8533783 227.74092102 C266.03035721 227.75731628 265.20733612 227.77371155 264.359375 227.79060364 C258.59960511 227.72107146 258.59960511 227.72107146 255.61094666 224.67256165 C255.09153503 223.83918274 254.57212341 223.00580383 254.03697205 222.14717102 C250.89826017 220.57781508 248.49841383 220.79515999 245.03697205 221.14717102 C241.97389574 223.12683365 241.97389574 223.12683365 240.03697205 226.14717102 C239.48348566 230.0215757 239.73728641 232.92761114 242.03697205 236.14717102 C244.73285008 238.24396505 246.12991604 238.14227923 249.59947205 237.95967102 C252.93172243 237.1720482 254.09067966 236.85035489 256.03697205 234.14717102 C256.36697205 233.48717102 256.69697205 232.82717102 257.03697205 232.14717102 C258.2266156 232.1640094 259.41625916 232.18084778 260.64195251 232.19819641 C265.0967323 232.24919969 269.54980527 232.24035094 274.00474548 232.21430969 C275.92503458 232.21124574 277.84542129 232.22396666 279.76548767 232.25337219 C292.7736368 232.7941921 292.7736368 232.7941921 303.91197205 227.02607727 C305.32784291 225.43523059 306.70662038 223.81019474 308.03697205 222.14717102 C309.27535186 220.90110038 310.52705032 219.66805197 311.79478455 218.45185852 C312.91926728 217.31068197 314.0416846 216.16746634 315.16197205 215.02217102 C318.89269495 211.24242616 322.61732729 207.53318343 326.66197205 204.08467102 C332.4653744 199.0715192 334.66765915 194.69833497 336.9783783 187.42451477 C338.04317283 184.12797376 339.17259741 180.88221601 340.41197205 177.64717102 C340.77033142 176.68810852 341.1286908 175.72904602 341.49790955 174.74092102 C345.11052964 168.65264757 352.35927551 166.5582717 358.66197205 164.08467102 C359.54336853 163.73469055 360.42476501 163.38471008 361.33287048 163.02412415 C367.80838666 160.50415413 374.20530034 158.48018013 381.03697205 157.14717102 C381.03697205 156.15717102 381.03697205 155.16717102 381.03697205 154.14717102 C380.3099408 154.40111633 379.58290955 154.65506165 378.83384705 154.91670227 C373.50188067 156.74187538 368.20947737 158.40602879 362.72447205 159.70967102 C359.3203474 160.52060124 356.16705611 161.39934962 352.97447205 162.83467102 C350.03697205 164.14717102 350.03697205 164.14717102 347.03697205 164.14717102 C347.61601422 159.3990252 349.10566832 155.47317793 351.03697205 151.14717102 C355.81085273 140.35764447 355.81085273 140.35764447 359.39634705 129.13545227 C360.03697205 127.14717102 360.03697205 127.14717102 362.03697205 124.14717102 C362.73861846 122.15917284 363.41070076 120.16018586 364.03697205 118.14717102 C371.61747291 118.07102413 379.19787489 118.01853022 386.77867126 117.9823761 C389.35683376 117.96730197 391.93497067 117.94683935 394.51304626 117.92085266 C398.22160666 117.88441016 401.92982758 117.8674305 405.63853455 117.85420227 C406.78875092 117.83871841 407.93896729 117.82323456 409.1240387 117.80728149 C415.91972237 117.80585658 420.35084763 118.42429311 425.93540955 122.54951477 C429.22066887 125.96514153 430.44819336 128.66461806 430.55259705 133.42451477 C430.36546092 141.49032622 427.39298995 148.41500278 424.41197205 155.77217102 C423.57304263 157.90610612 422.74125628 160.04273339 421.90997314 162.17965698 C421.36526883 163.57884504 420.81832958 164.97716525 420.26907349 166.37457275 C417.70421593 172.91860313 415.50532823 179.55076652 413.4158783 186.26045227 C412.4106505 189.29111551 411.14412047 192.12280184 409.7830658 195.01045227 C406.16795717 202.812464 403.40774719 210.92515554 400.53697205 219.02217102 C399.42462685 222.14536839 398.30965318 225.26761955 397.19322205 228.38935852 C396.92311813 229.14522751 396.65301422 229.9010965 396.37472534 230.67987061 C394.03274594 237.20994925 391.55321579 243.68237676 389.03697205 250.14717102 C388.33576427 251.98365238 387.63646384 253.82086345 386.9393158 255.65888977 C386.61253845 256.51933899 386.28576111 257.37978821 385.94908142 258.26631165 C385.29496298 259.99009071 384.64132338 261.71405156 383.98814392 263.43818665 C382.07536445 268.47201618 380.11996697 273.48579688 378.10922241 278.48132324 C377.04021623 281.13910527 375.97529717 283.79848838 374.91172791 286.45845032 C374.38197609 287.78322639 374.38197609 287.78322639 373.84152222 289.13476562 C373.57602066 289.79885941 373.3105191 290.46295319 373.03697205 291.14717102 C363.99656737 291.26309724 354.95641911 291.3519021 345.91543293 291.40623188 C341.71715324 291.43230964 337.51938259 291.46767325 333.32139587 291.52436829 C329.26891272 291.57875483 325.21691872 291.60860527 321.16409874 291.62155724 C319.61909981 291.63078536 318.07412722 291.64880638 316.52933693 291.6758213 C314.36243291 291.71220341 312.19754129 291.71711306 310.03038025 291.71479797 C308.79794083 291.72590103 307.5655014 291.73700409 306.29571533 291.7484436 C302.12365297 290.978654 300.73897898 289.33340712 298.03697205 286.14717102 C296.82074158 284.96574524 296.82074158 284.96574524 295.5799408 283.76045227 C294.80263611 283.00119446 294.02533142 282.24193665 293.22447205 281.45967102 C292.43427673 280.69267883 291.64408142 279.92568665 290.8299408 279.13545227 C289.03697205 277.14717102 289.03697205 277.14717102 289.03697205 275.14717102 C290.05718445 275.24779846 291.07739685 275.3484259 292.12852478 275.45210266 C313.66924827 277.82437345 313.66924827 277.82437345 332.91897583 270.13516235 C336.97479761 266.38050234 340.53941232 262.34767239 343.93125916 257.98921204 C344.8284819 256.84998034 345.7294957 255.71372218 346.6346283 254.58076477 C347.06124252 254.04599014 347.48785675 253.51121552 347.92739868 252.9602356 C350.39770716 250.14919093 351.91495208 249.17375376 355.60289001 248.37031555 C358.84676092 248.36987772 361.84673358 248.5799401 365.03697205 249.14717102 C366.69346381 245.22459851 367.57409611 242.44416352 367.03697205 238.14717102 C365.76372367 235.11788994 365.76372367 235.11788994 363.03697205 233.14717102 C358.78641112 232.25026367 355.31157466 232.46323791 351.47447205 234.52217102 C349.82570516 237.53296272 350.02771963 238.61988996 350.28697205 241.95967102 C350.47627198 246.57723716 350.47627198 246.57723716 348.55259705 249.07295227 C346.44007937 250.8538538 344.24709362 252.48957984 342.03697205 254.14717102 C340.68036574 255.45681788 339.34671202 256.79065462 338.03697205 258.14717102 C334.69759459 261.53944951 331.21325415 264.69827113 327.6033783 267.79951477 C326.72448807 268.55566721 325.85679353 269.32734953 325.03697205 270.14717102 C323.34895219 270.24070265 321.65701997 270.26461893 319.96641541 270.26069641 C318.88537033 270.26062088 317.80432526 270.26054535 316.69052124 270.26046753 C314.92648705 270.2527256 314.92648705 270.2527256 313.1268158 270.24482727 C311.33105858 270.24270485 311.33105858 270.24270485 309.49902344 270.24053955 C305.65748139 270.23492081 301.81599662 270.22236513 297.97447205 270.20967102 C295.37746768 270.20465844 292.7804624 270.20009511 290.18345642 270.19599915 C283.80127526 270.1849453 277.41912774 270.16818894 271.03697205 270.14717102 C270.73766785 270.77695862 270.43836365 271.40674622 270.12998962 272.05561829 C268.91724877 274.37626848 267.75220257 275.44772368 265.72447205 277.08467102 C260.99172572 281.05913203 256.71752401 285.43616369 252.43028259 289.87934875 C251.00182795 291.33808262 249.52315459 292.74729653 248.03697205 294.14717102 C247.37697205 294.14717102 246.71697205 294.14717102 246.03697205 294.14717102 C243.75019406 297.77085188 243.84945279 300.72551065 243.9393158 304.94795227 C243.95041928 306.32089651 243.95834743 307.69386924 243.96348572 309.06684875 C243.96689972 309.7841214 243.97031372 310.50139404 243.97383118 311.24040222 C243.97814315 326.17234705 241.80474414 338.10935552 235.19468689 351.69746399 C233.27136044 355.76719355 231.67398884 359.95535915 230.03697205 364.14717102 C223.10697205 364.14717102 216.17697205 364.14717102 209.03697205 364.14717102 C210.79483842 358.87357189 212.54469599 353.66664015 214.48228455 348.46748352 C215.13777283 346.70404602 215.13777283 346.70404602 215.8065033 344.90498352 C216.25380798 343.7061554 216.70111267 342.50732727 217.16197205 341.27217102 C218.0608221 338.8582621 218.95927881 336.44420666 219.85728455 334.02998352 C220.2518988 332.97182434 220.64651306 331.91366516 221.05308533 330.82344055 C222.74549025 326.21993118 223.06406025 323.08027668 222.8611908 318.16279602 C222.19330779 292.3571786 222.19330779 292.3571786 228.70762634 284.87275696 C231.14517177 282.56890063 233.64140695 280.43431351 236.33531189 278.43574524 C238.60082816 276.7201936 240.48080587 274.72539995 242.41197205 272.64717102 C245.55063135 269.54211621 248.86981624 266.68330457 252.2205658 263.81123352 C253.91347256 262.26031249 255.34894196 260.6826151 256.78697205 258.89717102 C261.26435301 253.42481651 261.26435301 253.42481651 265.34025574 252.78640747 C266.18408813 252.79306931 267.02792053 252.79973114 267.89732361 252.80659485 C268.85801758 252.80682144 269.81871155 252.80704803 270.80851746 252.80728149 C272.35246185 252.83050728 272.35246185 252.83050728 273.92759705 252.85420227 C275.5172226 252.86056953 275.5172226 252.86056953 277.13896179 252.86706543 C280.52189091 252.88385072 283.90422314 252.92150347 287.28697205 252.95967102 C289.58123427 252.97471802 291.87550584 252.98840639 294.16978455 253.00068665 C299.79238385 253.03375374 305.4146353 253.08395199 311.03697205 253.14717102 C311.3294281 252.52495667 311.62188416 251.90274231 311.92320251 251.26167297 C313.29765931 248.65225379 314.92449795 247.25738181 317.16197205 245.33467102 C328.54524526 235.32327004 339.47810272 224.85885923 350.10166931 214.04560852 C354.00846065 210.08868726 358.0072895 206.3545325 362.2752533 202.78779602 C364.13137441 201.16495285 364.13137441 201.16495285 365.62339783 198.95747375 C366.32311707 198.0613739 366.32311707 198.0613739 367.03697205 197.14717102 C369.34165955 196.93232727 369.34165955 196.93232727 371.91197205 197.20967102 C375.82855389 197.35854694 376.74905359 197.3371972 380.16197205 195.08467102 C382.51502075 191.39822805 382.74038674 189.44581636 382.03697205 185.14717102 C380.169887 182.78219663 378.71635774 181.48686387 376.03697205 180.14717102 C372.31063746 179.80214004 369.89761205 179.66168179 366.59947205 181.52217102 C364.76172754 184.60958178 365.11209233 185.17855139 365.59947205 188.58467102 C365.79295154 192.54806914 364.98668118 194.53325538 362.4393158 197.44404602 C358.54234315 201.46537176 354.35796788 205.1531175 350.11314392 208.80000305 C345.01627636 213.19762055 340.25292843 217.84531379 335.53697205 222.64717102 C330.88186179 227.38707382 326.23273597 232.00963589 321.09165955 236.22554016 C318.91515654 238.13662067 318.91515654 238.13662067 317.13853455 240.78559875 C314.18621022 244.61152179 311.58202879 247.61902973 306.67076111 248.63819885 C299.64333238 249.31009884 292.57943936 248.98300391 285.53697205 248.70967102 C270.12220423 247.22171426 270.12220423 247.22171426 256.5408783 252.70967102 C255.00916878 254.49654822 253.51174423 256.31301966 252.03697205 258.14717102 C250.23949697 259.98750588 248.39712291 261.77496675 246.54890442 263.56427002 C244.52636038 265.52476447 242.53131919 267.50960006 240.54283142 269.5045929 C237.79971309 272.25631968 235.05226574 275.00355653 232.30064392 277.7467804 C230.98196318 279.06612072 229.66359201 280.38577056 228.3455658 281.70576477 C227.41604347 282.63225075 227.41604347 282.63225075 226.46774292 283.57745361 C222.1682942 287.63332016 222.1682942 287.63332016 220.94273376 293.11787415 C220.95062927 294.37535461 220.95852478 295.63283508 220.96665955 296.92842102 C220.93403188 312.14978807 220.85721065 325.35543279 213.92710876 339.23701477 C212.41817042 342.47506569 211.40194372 345.86396508 210.34947205 349.27217102 C208.65273595 354.71406644 206.66702964 358.88705584 204.03697205 364.14717102 C187.20697205 364.14717102 170.37697205 364.14717102 153.03697205 364.14717102 C154.77128722 360.67854067 155.6680175 359.30128496 158.38072205 356.82685852 C159.04507263 356.21334534 159.70942322 355.59983215 160.39390564 354.96772766 C161.10111755 354.32569397 161.80832947 353.68366028 162.53697205 353.02217102 C168.44908902 347.67952457 168.44908902 347.67952457 173.96665955 341.94013977 C179.86933675 335.34913119 179.86933675 335.34913119 183.72447205 334.68232727 C185.45274236 334.74010375 187.18050409 334.85300563 188.9002533 335.03388977 C191.23200678 335.35931254 191.23200678 335.35931254 193.59947205 333.58467102 C195.53787272 330.2978177 196.03697205 327.96665922 196.03697205 324.14717102 C194.27056032 321.34527656 193.00647383 319.63192191 190.03697205 318.14717102 C186.27481245 317.79882291 183.89569152 317.64074672 180.59947205 319.58467102 C178.83103666 322.48490506 179.00135978 323.07501181 179.32896423 326.30122375 C179.41096031 332.19243496 176.69374075 335.09235912 172.80259705 339.24482727 C172.14519028 339.96605774 171.48778351 340.68728821 170.81045532 341.43037415 C168.67229883 343.72832381 166.48968314 345.97361051 164.28697205 348.20967102 C163.18266342 349.34793839 163.18266342 349.34793839 162.05604553 350.50920105 C153.46822784 359.20057495 146.29718683 365.98282249 133.70201111 366.44770813 C128.36134006 366.10665794 123.22518822 365.47470576 118.03697205 364.14717102 C119.7472267 360.48282151 121.79695128 358.21261212 124.72447205 355.39717102 C128.52517171 351.67885647 132.12235443 347.88943598 135.5643158 343.83857727 C136.05029236 343.28041321 136.53626892 342.72224915 137.03697205 342.14717102 C137.49330017 341.58642883 137.9496283 341.02568665 138.41978455 340.44795227 C140.62389081 338.67508419 142.17801572 338.814223 144.97447205 338.77217102 C148.59233757 338.49224858 149.72894547 338.3891919 152.66197205 336.08467102 C154.44160826 332.28272093 155.12303294 329.25927943 154.03697205 325.14717102 C150.92651539 321.50566079 149.10674676 320.29222522 144.34947205 319.64717102 C141.13375607 319.88495383 141.13375607 319.88495383 139.22447205 321.39717102 C137.97054559 323.24506264 137.0179801 325.14376217 136.03697205 327.14717102 C134.96326355 327.12509583 133.88955505 327.10302063 132.78330994 327.08027649 C128.76273844 327.01104016 124.74430841 327.00849257 120.72325134 327.02510071 C118.99006576 327.02316545 117.25680026 327.00363847 115.52403259 326.9655304 C105.19986921 326.50979391 105.19986921 326.50979391 95.96250916 330.31929016 C93.71656887 332.82172613 91.87920619 335.34093269 90.03697205 338.14717102 C88.88008572 339.40519367 87.69785973 340.64121825 86.47447205 341.83467102 C85.91630798 342.38510071 85.35814392 342.9355304 84.7830658 343.50263977 C82.26597286 345.87332461 79.647961 348.12057937 77.02915955 350.37763977 C73.89274401 353.16351474 70.96623284 356.14665794 68.03697205 359.14717102 C67.37697205 359.80717102 66.71697205 360.46717102 66.03697205 361.14717102 C68.01697205 359.82717102 69.99697205 358.50717102 72.03697205 357.14717102 C72.53197205 358.63217102 72.53197205 358.63217102 73.03697205 360.14717102 C71.59947205 362.33467102 71.59947205 362.33467102 70.03697205 364.14717102 C70.40870544 363.73467102 70.78043884 363.32217102 71.16343689 362.89717102 C77.66602179 355.7152714 84.00815984 348.75587523 91.7908783 342.92842102 C94.88797308 340.4722902 97.50641974 337.64416067 100.1502533 334.71357727 C104.02683987 331.49512755 109.04301285 332.0282549 113.8690033 332.04951477 C115.16128845 332.05273743 116.45357361 332.05596008 117.78501892 332.0592804 C119.13983731 332.06763437 120.49465502 332.0760993 121.84947205 332.08467102 C123.22381939 332.08969102 124.59816849 332.09425305 125.97251892 332.0983429 C129.32738128 332.11011434 132.68215426 332.12655819 136.03697205 332.14717102 C136.69697205 333.46717102 137.35697205 334.78717102 138.03697205 336.14717102 C137.58894226 336.58996399 137.14091248 337.03275696 136.67930603 337.4889679 C134.60827109 339.53893785 132.54136508 341.59302535 130.47447205 343.64717102 C129.41776306 344.69131165 129.41776306 344.69131165 128.33970642 345.75654602 C120.38233026 353.55837834 120.38233026 353.55837834 113.5955658 362.35249329 C112.03697205 364.14717102 112.03697205 364.14717102 110.11094666 364.61372375 C109.03598938 364.59740906 109.03598938 364.59740906 107.9393158 364.58076477 C106.74375061 364.58982849 106.74375061 364.58982849 105.52403259 364.59907532 C104.68267761 364.5943219 103.84132263 364.58956848 102.97447205 364.58467102 C93.32145856 364.81413756 86.53213996 366.44788751 79.53697205 373.45967102 C78.71197205 374.34654602 77.88697205 375.23342102 77.03697205 376.14717102 C76.37697205 376.14717102 75.71697205 376.14717102 75.03697205 376.14717102 C75.03697205 376.80717102 75.03697205 377.46717102 75.03697205 378.14717102 C73.7440033 379.45185852 73.7440033 379.45185852 71.84947205 381.02217102 C68.05377179 384.24784562 64.37414044 387.57146177 60.72447205 390.95967102 C59.60734861 391.99229242 58.49016082 393.02484419 57.37290955 394.05732727 C55.71550814 395.59068902 54.05988447 397.12579113 52.40904236 398.66621399 C50.89303581 400.08074816 49.37174205 401.48938431 47.84947205 402.89717102 C46.96904236 403.71701477 46.08861267 404.53685852 45.1815033 405.38154602 C43.03697205 407.14717102 43.03697205 407.14717102 41.03697205 407.14717102 C41.03697205 407.80717102 41.03697205 408.46717102 41.03697205 409.14717102 C39.8143158 410.41670227 39.8143158 410.41670227 37.97447205 411.95967102 C37.25259705 412.57455383 36.53072205 413.18943665 35.78697205 413.82295227 C34.87947205 414.58994446 33.97197205 415.35693665 33.03697205 416.14717102 C30.51020726 418.3069871 27.99201412 420.47661881 25.47447205 422.64717102 C24.8498407 423.1806012 24.22520935 423.71403137 23.58164978 424.2636261 C19.19850339 428.03728342 15.07366311 432.0057014 11.03697205 436.14717102 C8.72090228 434.01440828 7.25011109 431.97949804 5.80259705 429.19013977 C5.39630066 428.41380188 4.99000427 427.63746399 4.57139587 426.83760071 C4.14753601 426.01163391 3.72367615 425.18566711 3.28697205 424.33467102 C2.84957703 423.48679016 2.41218201 422.6389093 1.96153259 421.76533508 C1.07435027 420.04322446 0.18916459 418.3200837 -0.69398499 416.59590149 C-1.83764712 414.38910441 -3.01365316 412.20509775 -4.2091217 410.02607727 C-4.85650202 408.8165729 -5.50365408 407.60694632 -6.15052795 406.39717102 C-6.72158264 405.35045227 -7.29263733 404.30373352 -7.8809967 403.22529602 C-10.18428247 396.6729885 -7.26543693 390.85474235 -4.65052795 384.83467102 C-4.01234424 383.32302102 -3.3743224 381.81130268 -2.73646545 380.29951477 C-2.14557418 378.9152915 -1.55445512 377.53116541 -0.96302795 376.14717102 C1.79105471 369.61732987 4.00689333 363.07148676 6.0486908 356.28388977 C7.15144272 352.78385105 8.45178666 349.42436878 9.84947205 346.03388977 C13.95542383 336.05264514 17.79124213 325.9827801 21.28697205 315.77217102 C26.3703317 300.96425235 32.3080557 286.46789186 38.121521 271.93540955 C38.48056424 271.03785761 38.83960749 270.14030567 39.20953083 269.21555519 C39.61911423 268.19170503 39.61911423 268.19170503 40.03697205 267.14717102 C40.69258558 267.14662625 41.34819912 267.14608149 42.02367973 267.14552021 C58.00841892 267.13052442 73.99281459 267.08796506 89.97738457 267.01508045 C97.70756532 266.98049145 105.43756888 266.95508296 113.16783142 266.95161438 C119.90897893 266.94856597 126.64981036 266.92795836 133.39083588 266.88664645 C136.9571513 266.86539362 140.52301826 266.85267558 144.08939743 266.86101723 C148.08001034 266.87002101 152.06943614 266.83980596 156.05992126 266.80659485 C157.23021378 266.81522049 158.40050629 266.82384613 159.60626221 266.83273315 C170.75681673 266.67764937 178.26323633 262.17224581 186.84947205 255.45967102 C187.52453796 254.94291809 188.19960388 254.42616516 188.89512634 253.89375305 C190.94857155 252.31937273 192.99319606 250.73407378 195.03697205 249.14717102 C196.90456702 247.70842771 198.77374403 246.27176219 200.64317322 244.83540344 C202.25259835 243.5967287 203.85781443 242.3525906 205.4627533 241.10810852 C207.27598592 239.72685999 209.14039739 238.41155412 211.03697205 237.14717102 C194.68563185 236.95977796 178.33464321 236.81896777 161.98248672 236.73267365 C154.38879112 236.69152953 146.79576505 236.63549894 139.20249939 236.5436554 C132.57940118 236.46358501 125.95678812 236.41222752 119.33321929 236.39446306 C115.83007298 236.38408817 112.3283138 236.35994142 108.82561493 236.30133057 C104.90265117 236.23622794 100.98100887 236.23527287 97.05747986 236.2389679 C95.91307938 236.21020569 94.76867889 236.18144348 93.58959961 236.15180969 C84.46000623 236.24433721 79.1356704 239.64825087 72.03697205 245.14717102 C70.65093191 246.10299317 69.25942401 247.05106337 67.85728455 247.98310852 C66.62468258 248.82825179 65.39290462 249.67459815 64.16197205 250.52217102 C63.17003845 251.20436707 63.17003845 251.20436707 62.1580658 251.90034485 C55.39263198 256.56768878 48.70597032 261.3434082 42.03697205 266.14717102 C41.37697205 265.81717102 40.71697205 265.48717102 40.03697205 265.14717102 C40.30509705 264.45236633 40.57322205 263.75756165 40.84947205 263.04170227 C41.97085713 260.13126532 43.08944448 257.21976557 44.20689392 254.30781555 C44.7749301 252.8292508 45.34398974 251.35107894 45.91392517 249.87324524 C49.84634527 239.67274789 53.67235284 229.44261527 57.34947205 219.14717102 C79.00322768 158.75404737 79.00322768 158.75404737 93.76187134 151.07769775 C100.30379254 148.22701696 106.99411327 148.61396517 114.00498962 148.68061829 C115.50407072 148.68006869 117.00315208 148.67768866 118.50222778 148.67362976 C121.71558951 148.66847526 124.92860845 148.67546165 128.14193153 148.69188118 C133.23299659 148.71712428 138.32372811 148.71068145 143.41482544 148.69940186 C156.0596033 148.67626229 168.70428307 148.6945744 181.3490448 148.72090149 C191.18040884 148.74089595 201.01150341 148.74933863 210.84286803 148.72396511 C215.8935142 148.71221309 220.94338987 148.72365711 225.99395525 148.75321782 C229.1489032 148.76656743 232.30355939 148.7589922 235.458498 148.74593735 C236.90961979 148.74409653 238.36078336 148.75065618 239.81181717 148.7667408 C263.54396973 149.01522257 280.42321566 133.25045076 298.03697205 119.14717102 C270.04681022 119.05368765 242.05667182 118.98317209 214.06638527 118.93992233 C201.06971134 118.91930606 188.07313446 118.89120313 175.07652283 118.84541321 C163.74733965 118.80551707 152.41822678 118.77973142 141.08897531 118.77081704 C135.09142565 118.76560706 129.09407709 118.75338077 123.09659195 118.72425079 C117.44790684 118.69703805 111.79950509 118.68873798 106.15076065 118.6947403 C104.08119668 118.69364269 102.01162293 118.68572397 99.94211578 118.67034912 C84.29191308 118.55981384 73.83266971 119.98693181 62.03697205 131.14717102 C53.71033768 139.99219508 49.85803623 151.23972992 45.72447205 162.45967102 C45.33767273 163.50018616 44.95087341 164.54070129 44.55235291 165.61274719 C41.71183333 173.27083439 38.91585423 180.94509644 36.13414001 188.62471008 C33.40182745 196.16389384 30.63248529 203.68906314 27.84947205 211.20967102 C27.44543152 212.30319885 27.04139099 213.39672668 26.62510681 214.52339172 C24.17996123 221.12263411 21.68080351 227.69906908 19.14659119 234.26460266 C17.85761813 237.61309659 16.59936045 240.97140665 15.34947205 244.33467102 C13.4636763 249.40266676 11.53472534 254.45212268 9.5721283 259.49092102 C9.13408875 260.61860901 8.69604919 261.746297 8.24473572 262.90815735 C7.38021267 265.13083201 6.51210016 267.35211514 5.63975525 269.57173157 C2.75337294 277.00241228 0.28525133 284.49974497 -1.96302795 292.14717102 C-2.62302795 292.14717102 -3.28302795 292.14717102 -3.96302795 292.14717102 C-4.0713092 292.98248352 -4.17959045 293.81779602 -4.29115295 294.67842102 C-5.03566853 298.52219911 -6.28899676 302.0183314 -7.71302795 305.64717102 C-8.26353088 307.07906951 -8.81299334 308.51136842 -9.36146545 309.94404602 C-9.63442444 310.65496399 -9.90738342 311.36588196 -10.18861389 312.0983429 C-11.29041547 315.01332361 -12.31295838 317.95445428 -13.33802795 320.89717102 C-15.72899561 327.65223497 -18.39068886 334.2867881 -21.0738678 340.93037415 C-23.50334229 346.95686916 -25.82369086 353.01065147 -27.96302795 359.14717102 C-28.29302795 359.14717102 -28.62302795 359.14717102 -28.96302795 359.14717102 C-29.05458719 316.75076354 -29.12506857 274.35436747 -29.16728927 231.95788071 C-29.17229209 226.9523738 -29.17746938 221.94686709 -29.18275452 216.94136047 C-29.18380376 215.94485593 -29.184853 214.94835139 -29.18593404 213.92164975 C-29.20333836 197.78724952 -29.23487622 181.65290631 -29.27163914 165.51853991 C-29.30904776 148.96268833 -29.33126364 132.40686661 -29.33938193 115.8509745 C-29.34486986 105.63542673 -29.36220188 95.42004013 -29.39469382 85.20454197 C-29.41584071 78.19900113 -29.42222759 71.19354359 -29.41703346 64.18797315 C-29.41447196 60.14634083 -29.41839335 56.10499012 -29.43984985 52.0634079 C-29.45936664 48.36009135 -29.46026512 44.65724483 -29.44662353 40.95390629 C-29.44414279 38.98614989 -29.46134879 37.01839873 -29.47935319 35.05072314 C-29.4082623 24.50541201 -26.5262353 15.75668372 -18.96302795 8.14717102 C-12.94370536 3.68873294 -7.63120927 0.03658944 0 0 Z " fill="#EEEFEE" transform="translate(59.96302795410156,48.85282897949219)"/>
<path d="M0 0 C0 18.02066371 -12.75303173 40.88701782 -19.64453125 57.3671875 C-20.08772705 58.4279248 -20.53092285 59.48866211 -20.98754883 60.58154297 C-21.48871216 61.7786792 -21.48871216 61.7786792 -22 63 C-23.31258789 62.99476318 -24.62517578 62.98952637 -25.97753906 62.98413086 C-64.61309139 62.84680224 -103.24132546 63.12684147 -141.875 63.5 C-143.11337112 63.51195782 -144.35174225 63.52391563 -145.62763977 63.53623581 C-161.08514302 63.68594624 -176.5425931 63.84066246 -192 64 C-192.37584229 65.03048462 -192.37584229 65.03048462 -192.75927734 66.08178711 C-193.9606232 69.36846232 -195.16784396 72.65295454 -196.375 75.9375 C-196.76816406 77.01580078 -197.16132813 78.09410156 -197.56640625 79.20507812 C-202.12527053 91.58414805 -207.09325483 103.73313707 -212 116 C-170.42 116 -128.84 116 -86 116 C-86 116.33 -86 116.66 -86 117 C-86.64861622 116.99777939 -87.29723244 116.99555878 -87.96550369 116.99327087 C-103.79244306 116.94184812 -119.61869534 116.9348998 -135.44563675 116.97665405 C-143.09968633 116.99578896 -150.75320214 117.0002071 -158.40722656 116.96923828 C-165.08329656 116.9422645 -171.75867485 116.94365906 -178.4347198 116.97825909 C-181.96563318 116.99559086 -185.49530892 116.9993009 -189.02616119 116.96896362 C-192.9805923 116.93552102 -196.93324768 116.96545409 -200.88769531 117 C-202.04144653 116.98058853 -203.19519775 116.96117706 -204.38391113 116.94117737 C-213.5263753 117.10347038 -218.88407042 120.48974394 -226 126 C-227.38607129 126.95577697 -228.77758969 127.90382969 -230.1796875 128.8359375 C-231.41228947 129.68108077 -232.64406743 130.52742713 -233.875 131.375 C-234.86693359 132.05719604 -234.86693359 132.05719604 -235.87890625 132.75317383 C-242.64434007 137.42051775 -249.33100172 142.19623718 -256 147 C-256.66 146.67 -257.32 146.34 -258 146 C-257.731875 145.30519531 -257.46375 144.61039063 -257.1875 143.89453125 C-256.06611491 140.9840943 -254.94752757 138.07259455 -253.83007812 135.16064453 C-253.26204195 133.68207977 -252.69298231 132.20390792 -252.12304688 130.72607422 C-248.19062678 120.52557687 -244.3646192 110.29544425 -240.6875 100 C-219.03374437 39.60687635 -219.03374437 39.60687635 -204.27510071 31.93052673 C-197.73317951 29.07984594 -191.04285877 29.46679415 -184.03198242 29.53344727 C-182.53290133 29.53289767 -181.03381996 29.53051764 -179.53474426 29.52645874 C-176.32138253 29.52130424 -173.1083636 29.52829063 -169.89504051 29.54471016 C-164.80397546 29.56995326 -159.71324394 29.56351043 -154.62214661 29.55223083 C-141.97736875 29.52909127 -129.33268897 29.54740338 -116.68792725 29.57373047 C-106.85656321 29.59372493 -97.02546863 29.6021676 -87.19410402 29.57679409 C-82.14345784 29.56504206 -77.09358218 29.57648609 -72.04301679 29.6060468 C-68.88806884 29.61939641 -65.73341266 29.61182118 -62.57847404 29.59876633 C-61.12735225 29.59692551 -59.67618869 29.60348516 -58.22515488 29.61956978 C-34.54552887 29.86750158 -17.54739024 14.14113213 0 0 Z " fill="#CBCCCB" transform="translate(358,168)"/>
<path d="M0 0 C0.33 0 0.66 0 1 0 C1.46802624 4.6802624 0.37153822 7.31185957 -1.75195312 11.40380859 C-4.50144481 17.12331067 -6.6185127 23.13442812 -8.875 29.0625 C-10.64919912 33.70179859 -12.42893758 38.33893876 -14.21813965 42.97247314 C-14.75417929 44.36253566 -15.28834559 45.75332161 -15.82092285 47.14471436 C-16.62623749 49.24378885 -17.44087879 51.3390183 -18.2578125 53.43359375 C-18.50352997 54.07901627 -18.74924744 54.72443878 -19.00241089 55.38941956 C-20.77166297 59.88583149 -20.77166297 59.88583149 -23 61 C-24.65988247 61.0929118 -26.32351247 61.12192033 -27.98599243 61.12025452 C-29.04051102 61.12162918 -30.0950296 61.12300385 -31.1815033 61.12442017 C-32.34315506 61.12082489 -33.50480682 61.11722961 -34.70166016 61.11352539 C-35.92114853 61.11367142 -37.1406369 61.11381744 -38.39707947 61.1139679 C-41.74605181 61.11338955 -45.09496293 61.10836546 -48.44392443 61.10139394 C-51.9419744 61.09515348 -55.44002515 61.09455605 -58.93807983 61.09336853 C-65.56434861 61.09025726 -72.19060094 61.08204662 -78.81686246 61.07201904 C-86.35968929 61.06085157 -93.9025169 61.05534585 -101.44534993 61.05032361 C-116.96357616 61.03986384 -132.48178596 61.02226834 -148 61 C-148.13326061 61.61628486 -148.26652122 62.23256971 -148.40382004 62.86752987 C-148.58080051 63.67686254 -148.75778099 64.4861952 -148.94012451 65.3200531 C-149.11463512 66.12196296 -149.28914574 66.92387281 -149.46894455 67.75008297 C-150.09081625 70.38476023 -150.94133545 72.83779262 -151.953125 75.34765625 C-152.32566406 76.28416016 -152.69820313 77.22066406 -153.08203125 78.18554688 C-153.46746094 79.13494141 -153.85289062 80.08433594 -154.25 81.0625 C-160.41408555 96.42975858 -166.09074629 111.95988428 -171.7203064 127.52902222 C-177.6145436 143.82014811 -183.59371116 160.06495635 -189.90771484 176.19873047 C-191.95847196 181.45809281 -193.97734637 186.72977916 -196 192 C-195.01 191.67 -194.02 191.34 -193 191 C-194.40715316 194.40062014 -196.02868228 195.89229698 -199 198 C-199.25579834 197.51345947 -199.51159668 197.02691895 -199.77514648 196.52563477 C-200.54983076 195.0523713 -201.32493689 193.57932962 -202.1003418 192.10644531 C-202.99866672 190.39738092 -203.894629 188.68707276 -204.78833008 186.97558594 C-207.03553957 182.68181774 -209.31221741 178.41490493 -211.703125 174.19921875 C-212.12150635 173.44890381 -212.5398877 172.69858887 -212.97094727 171.92553711 C-213.7637791 170.50773167 -214.57095516 169.09782369 -215.39428711 167.69750977 C-217.95590873 163.06770544 -218.41510632 160.29202984 -217 155 C-216.01574909 152.17241413 -214.88002308 149.43293935 -213.6875 146.6875 C-213.04931629 145.17585 -212.41129445 143.66413166 -211.7734375 142.15234375 C-211.18254622 140.76812048 -210.59142717 139.38399439 -210 138 C-207.24591734 131.47015885 -205.03007872 124.92431574 -202.98828125 118.13671875 C-201.88552932 114.63668003 -200.58518539 111.27719776 -199.1875 107.88671875 C-195.08154822 97.90547412 -191.24572991 87.83560908 -187.75 77.625 C-182.66664034 62.81708133 -176.72891635 48.32072084 -170.91545105 33.78823853 C-170.5564078 32.89068659 -170.19736456 31.99313465 -169.82744122 31.06838417 C-169.55438561 30.38581739 -169.28133001 29.70325062 -169 29 C-168.34438646 28.99945523 -167.68877293 28.99891047 -167.01329231 28.99834919 C-151.02855312 28.9833534 -135.04415746 28.94079404 -119.05958748 28.86790943 C-111.32940672 28.83332043 -103.59940316 28.80791194 -95.86914062 28.80444336 C-89.12799312 28.80139494 -82.38716169 28.78078733 -75.64613616 28.73947543 C-72.07982075 28.7182226 -68.51395379 28.70550456 -64.94757462 28.71384621 C-60.9569617 28.72284999 -56.9675359 28.69263493 -52.97705078 28.65942383 C-51.80675827 28.66804947 -50.63646576 28.67667511 -49.43070984 28.68556213 C-38.28048316 28.53048291 -30.77331708 24.02536841 -22.1875 17.3125 C-21.51388428 16.79647217 -20.84026855 16.28044434 -20.14624023 15.7487793 C-18.7681976 14.69162628 -17.39291964 13.63085906 -16.02050781 12.56640625 C-14.0592684 11.04594805 -12.08990646 9.5367726 -10.1171875 8.03125 C-4.87283466 4.22814505 -4.87283466 4.22814505 0 0 Z " fill="#A1A2A1" transform="translate(269,287)"/>
<path d="M0 0 C5.74205589 1.98490821 9.63759705 7.40668141 13.53125 11.875 C14.2634375 12.69226563 14.995625 13.50953125 15.75 14.3515625 C17.3672605 16.17429462 18.95291425 18.01871833 20.53125 19.875 C22.40249497 21.74624497 25.57323478 21.0490499 28.07055664 21.08032227 C28.75345261 21.09022186 29.43634857 21.10012146 30.13993835 21.11032104 C32.40705853 21.14201935 34.67419969 21.16672613 36.94140625 21.19140625 C38.50940001 21.2119686 40.07738813 21.23296488 41.64537048 21.25437927 C45.77995248 21.30967424 49.91458511 21.35905062 54.04925537 21.40722656 C58.26530483 21.45738753 62.48128043 21.51310174 66.69726562 21.56835938 C74.97519803 21.6760317 83.25319208 21.77745635 91.53125 21.875 C83.87559826 43.88737712 83.87559826 43.88737712 80.40625 53 C80.09816406 53.82757813 79.79007812 54.65515625 79.47265625 55.5078125 C74.12199472 69.60008979 68.08196565 79.32669569 54.5 86.68359375 C47.63887914 89.43706988 40.86111653 90.1695964 33.52319336 90.10205078 C32.24838104 90.10248886 32.24838104 90.10248886 30.94781494 90.10293579 C28.17213296 90.10155577 25.39672814 90.08605788 22.62109375 90.0703125 C20.68339688 90.06657764 18.7456981 90.0637329 16.80799866 90.06173706 C11.7330698 90.05413785 6.65825725 90.03452159 1.58337402 90.0123291 C-3.60520861 89.99179033 -8.79381022 89.98271823 -13.98242188 89.97265625 C-24.14458207 89.95127192 -34.30665632 89.91718125 -44.46875 89.875 C-44.01462851 88.29903919 -43.55546001 86.72453226 -43.09423828 85.15063477 C-42.83909454 84.27367447 -42.58395081 83.39671417 -42.32107544 82.49317932 C-41.52301212 80.04168276 -40.57518488 77.78660676 -39.4609375 75.46484375 C-34.17819672 64.06958656 -33.10006634 54.24546496 -33.28125 41.875 C-33.48046188 25.13863918 -33.48046188 25.13863918 -28.1706543 19.3046875 C-25.91646226 17.31842835 -23.6139352 15.55150211 -21.08544922 13.92871094 C-18.83912231 12.46462955 -16.93344878 10.69262919 -14.96875 8.875 C-14.34871094 8.35808594 -13.72867187 7.84117187 -13.08984375 7.30859375 C-11.22250184 5.73111737 -11.22250184 5.73111737 -9.03125 2.9375 C-5.8914653 0.41035622 -4.00214185 -0.21344757 0 0 Z " fill="#E8E9E9" transform="translate(339.46875,323.125)"/>
<path d="M0 0 C0.99 0 1.98 0 3 0 C2.45276171 5.52998695 0.98345147 9.93605907 -1.25 15 C-3.63554419 20.582577 -5.82506853 26.15853934 -7.6875 31.9375 C-9.56383872 37.73820727 -11.65536715 43.374772 -14 49 C-16.09403242 54.03678252 -18.04279106 58.98829422 -19.5 64.25 C-21.51826423 71.09501253 -24.94004958 75.33198864 -30.45362854 79.71484375 C-32.45611242 81.51190621 -33.91494114 83.09503113 -35.54942322 85.18212891 C-40.45151726 91.06152174 -45.07868614 95.08462338 -52.85720825 96.15112305 C-60.05248522 96.68265184 -67.23540506 96.48727461 -74.44140625 96.3125 C-77.10005766 96.29797201 -79.75810631 96.28906803 -82.41673279 96.28808594 C-88.6694426 96.27496758 -94.91962443 96.20028555 -101.17146868 96.09892082 C-112.38526764 95.91871309 -123.59990345 95.83592481 -134.8149876 95.78923893 C-139.37654535 95.76726219 -143.93590378 95.69686263 -148.49671936 95.61450195 C-150.87744247 95.59101737 -153.25817462 95.56842617 -155.63891602 95.546875 C-156.72103363 95.51782578 -157.80315125 95.48877655 -158.9180603 95.45884705 C-164.98996242 95.38015818 -164.98996242 95.38015818 -170.08506775 98.46582031 C-170.71699539 99.30209961 -171.34892303 100.13837891 -172 101 C-174.85324437 102.42662219 -176.83454549 102.31033868 -180 102 C-183.33761045 99.84909549 -184.73470933 98.79587201 -186 95 C-186.52543317 91.51900523 -186.80752183 89.11902877 -184.68359375 86.17578125 C-181.56362884 83.18145251 -179.76446892 82.05272199 -175.375 81.75 C-172 83 -172 83 -169.98963928 86.02464294 C-168.2829944 88.1475865 -167.37043224 88.90654715 -164.70107841 89.57997322 C-161.71832039 89.8180056 -158.78316643 89.8677496 -155.79077148 89.85571289 C-154.09220757 89.88353096 -154.09220757 89.88353096 -152.35932922 89.91191101 C-148.61282163 89.9638354 -144.86793938 89.97066058 -141.12109375 89.97265625 C-138.51139149 89.98940033 -135.90169575 90.00719193 -133.29200745 90.02598572 C-127.81686514 90.05976569 -122.34216848 90.064826 -116.86694336 90.05688477 C-110.56359318 90.04846486 -104.26295468 90.10278877 -97.96022743 90.18742949 C-91.87365641 90.2661941 -85.78836169 90.28317586 -79.70131111 90.27728081 C-77.12379406 90.28249544 -74.54624752 90.30529898 -71.96905327 90.3464222 C-56.61368368 91.17771182 -56.61368368 91.17771182 -43.12856388 85.14648342 C-40.89835383 82.91287268 -38.96268538 80.46855581 -37 78 C-35.43922758 76.78113697 -33.84787083 75.59886454 -32.2109375 74.484375 C-25.54467381 68.55947427 -23.44616778 59.43271735 -20.625 51.25 C-19.98458453 49.45902733 -19.34108253 47.6691555 -18.69458008 45.88037109 C-17.40002259 42.29496612 -16.11601858 38.70607034 -14.83935547 35.11425781 C-12.25999615 27.8969194 -9.4929117 20.75688701 -6.6875 13.625 C-6.23777832 12.46258789 -5.78805664 11.30017578 -5.32470703 10.10253906 C-4.70571533 8.52424316 -4.70571533 8.52424316 -4.07421875 6.9140625 C-3.71932373 6.0060791 -3.36442871 5.0980957 -2.9987793 4.16259766 C-2 2 -2 2 0 0 Z " fill="#20201D" transform="translate(394,166)"/>
<path d="M0 0 C0.33 0 0.66 0 1 0 C1 11.22 1 22.44 1 34 C18.82 34 36.64 34 55 34 C55 34.33 55 34.66 55 35 C37.18 35.33 19.36 35.66 1 36 C0.34 38.31 -0.32 40.62 -1 43 C-3.04515245 48.7459045 -5.37976378 54.35295026 -7.73828125 59.9765625 C-10.64035512 66.9307581 -13.36416955 73.94133541 -16 81 C-14.98421875 80.60167969 -13.9684375 80.20335937 -12.921875 79.79296875 C-2.76098085 75.8621571 7.2076645 72.72487474 18 71 C18 71.99 18 72.98 18 74 C17.19892822 74.27674561 16.39785645 74.55349121 15.57250977 74.83862305 C12.55647851 75.88505457 9.5431976 76.93898604 6.53149414 77.99780273 C5.2359733 78.45159646 3.93944443 78.90252426 2.6418457 79.3503418 C-10.34708358 82.99473927 -10.34708358 82.99473927 -20.38745117 91.15405273 C-21.55826161 93.69269586 -22.49345724 96.22260484 -23.375 98.875 C-24.00741798 100.62253866 -24.64022346 102.36993714 -25.2734375 104.1171875 C-25.56726318 104.9515332 -25.86108887 105.78587891 -26.16381836 106.64550781 C-28.09778337 112.09110155 -29.89964682 116.43223132 -34.1875 120.5 C-34.99316406 121.27085937 -35.79882812 122.04171875 -36.62890625 122.8359375 C-38.60093909 124.63578296 -40.59446069 126.39215464 -42.625 128.125 C-47.63547735 132.40372407 -52.19661664 137.14799665 -56.80908203 141.84619141 C-57.43540527 142.48089355 -58.06172852 143.1155957 -58.70703125 143.76953125 C-59.2688208 144.34292236 -59.83061035 144.91631348 -60.40942383 145.50708008 C-63.30121348 148.22132317 -65.21629509 149.25097665 -69.10424805 149.22705078 C-69.92487228 149.22689972 -70.74549652 149.22674866 -71.59098816 149.22659302 C-72.9129998 149.21110916 -72.9129998 149.21110916 -74.26171875 149.1953125 C-75.62040825 149.19106766 -75.62040825 149.19106766 -77.00654602 149.18673706 C-79.90033158 149.17553964 -82.79380794 149.15043589 -85.6875 149.125 C-87.64908407 149.11496963 -89.610673 149.10584388 -91.57226562 149.09765625 C-96.3816296 149.07560173 -101.19076237 149.04107489 -106 149 C-106.29519531 149.79664063 -106.59039062 150.59328125 -106.89453125 151.4140625 C-108 154 -108 154 -109.6875 155.375 C-113.1096387 156.29990235 -115.58134185 155.85466454 -119 155 C-122.27498169 152.32830441 -123.84248982 150.4175916 -124.3125 146.1875 C-123.92835642 142.2692355 -122.70743683 140.78706733 -120 138 C-116.86128812 136.43064406 -114.46144178 136.64798897 -111 137 C-108.125 139.4375 -108.125 139.4375 -106 142 C-103.08152552 144.91847448 -92.86552304 143.50592819 -88.75634766 143.56982422 C-86.93265084 143.60633046 -85.10921632 143.66074676 -83.28662109 143.73388672 C-72.64081825 144.44480082 -72.64081825 144.44480082 -62.86962891 141.06201172 C-60.64221907 138.82278539 -58.84010278 136.55850287 -57 134 C-55.82318846 132.92284936 -54.61901305 131.87378448 -53.375 130.875 C-51.91200084 129.58862045 -50.45461889 128.29584829 -49 127 C-48.43941895 126.51354004 -47.87883789 126.02708008 -47.30126953 125.52587891 C-45.31454569 123.77922394 -43.37593229 121.9875067 -41.4375 120.1875 C-40.81214355 119.65044434 -40.18678711 119.11338867 -39.54248047 118.56005859 C-33.12107894 112.45576331 -30.81457495 104.6599484 -27.91091919 96.51553345 C-26.37726989 92.28031022 -24.71343666 88.09681192 -23.0625 83.90625 C-22.38745035 82.17860822 -21.71297469 80.45074205 -21.0390625 78.72265625 C-20.0192328 76.11050375 -18.99936247 73.49836712 -17.97949219 70.88623047 C-17.30138913 69.14936344 -16.62357257 67.41238454 -15.94604492 65.67529297 C-15.27896687 63.96779277 -14.60989025 62.26107188 -13.9387207 60.55517578 C-12.26889835 56.30254653 -10.6405074 52.04089899 -9.08203125 47.74609375 C-8.77338135 46.9106604 -8.46473145 46.07522705 -8.14672852 45.21447754 C-7.56253799 43.62930606 -6.99074709 42.03949217 -6.43334961 40.44470215 C-5.640625 38.31445312 -5.640625 38.31445312 -4 35 C-2.68 34.67 -1.36 34.34 0 34 C0 22.78 0 11.56 0 0 Z " fill="#2C2A29" transform="translate(423,132)"/>
<path d="M0 0 C4.38836973 0.5755239 6.33375673 1.64449854 9.48046875 4.65625 C11.40486575 7.31993148 11.68673257 9.3013858 11.3515625 12.53515625 C10.38138066 16.07139877 8.89475399 18.57617704 5.8125 20.5 C3.53515625 20.80859375 3.53515625 20.80859375 1 20.875 C-3.38761389 21.06378457 -5.27367186 21.94307073 -8.375 25.0625 C-9.66961795 26.52089492 -10.94086292 28.00038426 -12.1875 29.5 C-13.37466411 30.83363241 -14.56215503 32.16697398 -15.75 33.5 C-17.54656389 35.55788227 -19.28725883 37.62776131 -20.96875 39.78125 C-25.47687736 45.39663671 -25.47687736 45.39663671 -29.625 46 C-30.470625 45.835 -31.31625 45.67 -32.1875 45.5 C-30.78348688 42.35244117 -29.10903964 40.12854507 -26.73828125 37.63671875 C-26.05443359 36.91419922 -25.37058594 36.19167969 -24.66601562 35.44726562 C-23.59383789 34.32868164 -23.59383789 34.32868164 -22.5 33.1875 C-21.80455078 32.45337891 -21.10910156 31.71925781 -20.39257812 30.96289062 C-16.06051374 26.40431307 -11.65791202 21.92284508 -7.1875 17.5 C-7.6825 16.015 -7.6825 16.015 -8.1875 14.5 C-12.20764331 14.45029307 -16.22766578 14.41413613 -20.24804688 14.39013672 C-21.6136385 14.3801241 -22.97920894 14.36650995 -24.34472656 14.34912109 C-26.31565912 14.32466427 -28.28675284 14.3145428 -30.2578125 14.3046875 C-31.44133301 14.29421387 -32.62485352 14.28374023 -33.84423828 14.27294922 C-40.19271979 14.70409336 -43.66564051 16.49476304 -47.9375 21.125 C-51.17708833 24.51470379 -54.38688139 27.54615348 -58.125 30.375 C-64.20600797 35.07352126 -69.13999619 40.7423911 -74.1875 46.5 C-74.8475 46.17 -75.5075 45.84 -76.1875 45.5 C-74.2075 43.025 -74.2075 43.025 -72.1875 40.5 C-75.46908484 40.5 -77.56631108 42.67656423 -80.1875 44.5 C-78.79243574 41.24957109 -77.21966606 39.42628208 -74.5 37.1875 C-71.77564836 34.88530014 -69.18088129 32.5507004 -66.6875 30 C-64.27684521 27.54551512 -61.79397609 25.2455794 -59.1875 23 C-52.33252481 17.39635504 -52.33252481 17.39635504 -47.10864258 10.42236328 C-44.62128301 7.93342323 -42.70371535 8.03935333 -39.2833252 8.02259827 C-38.49889038 8.0370549 -37.71445557 8.05151154 -36.90625 8.06640625 C-35.24348864 8.05680226 -33.58072824 8.04703155 -31.91796875 8.03710938 C-29.29758084 8.04572098 -26.67743669 8.062585 -24.05712891 8.0847168 C-21.52717757 8.0992076 -18.99865024 8.08400733 -16.46875 8.06640625 C-15.29209778 8.09112755 -15.29209778 8.09112755 -14.0916748 8.11634827 C-11.61851313 8.1490724 -11.61851313 8.1490724 -8.1875 7.5 C-6.20586807 5.19002673 -6.20586807 5.19002673 -5.1875 2.5 C-3.1875 0.5 -3.1875 0.5 0 0 Z " fill="#0D0F0D" transform="translate(204.1875,367.5)"/>
<path d="M0 0 C4.16458965 1.36295661 5.8675868 2.57247293 8.4375 6.125 C8.62929196 8.10685027 8.81975989 10.08897292 8.98168945 12.07348633 C9.73582639 15.46770843 11.54769256 17.29423212 14.02636719 19.64941406 C18.97645257 22.67881018 24.7360909 22.1127682 30.375 22.0625 C32.25928711 22.08666992 32.25928711 22.08666992 34.18164062 22.11132812 C37.26804276 22.14653423 40.35109739 22.15014446 43.4375 22.125 C43.705625 21.34125 43.97375 20.5575 44.25 19.75 C45.4375 17.125 45.4375 17.125 48.4375 15.125 C52.90245113 14.53528947 54.94970265 14.84119063 58.875 17.125 C61.75305694 20.49443251 62.2298012 21.91244157 61.90625 26.19140625 C61.17373313 29.21303835 59.63466904 30.99245358 57.4375 33.125 C54.61748673 34.53500664 52.56742745 34.37048451 49.4375 34.125 C46.625 32.875 46.625 32.875 44.4375 31.125 C43.80078125 29.015625 43.80078125 29.015625 43.4375 27.125 C42.64166504 27.17213135 41.84583008 27.2192627 41.02587891 27.26782227 C37.37208684 27.45648212 33.71931995 27.57242525 30.0625 27.6875 C28.18498047 27.80061523 28.18498047 27.80061523 26.26953125 27.91601562 C19.03944745 28.08635791 15.00906939 27.52691245 9.5234375 22.58984375 C8.1271069 21.13374308 6.75167987 19.65565333 5.4375 18.125 C4.4475 18.455 3.4575 18.785 2.4375 19.125 C2.1075 29.025 1.7775 38.925 1.4375 49.125 C-1.32177344 46.36572656 -1.08033243 43.91345948 -1.5625 40.125 C-1.8925 39.795 -2.2225 39.465 -2.5625 39.125 C-2.64919432 37.6362814 -2.66953494 36.143555 -2.66015625 34.65234375 C-2.65693359 33.75322266 -2.65371094 32.85410156 -2.65039062 31.92773438 C-2.64201172 30.98220703 -2.63363281 30.03667969 -2.625 29.0625 C-2.62048828 28.11310547 -2.61597656 27.16371094 -2.61132812 26.18554688 C-2.5995011 23.83196935 -2.58302025 21.47851523 -2.5625 19.125 C-3.34882813 18.84011719 -4.13515625 18.55523437 -4.9453125 18.26171875 C-8.35399368 16.78123185 -9.1891275 15.55843125 -10.5625 12.125 C-10.64601317 7.44826241 -10.03701041 5.66729761 -6.9375 2.125 C-3.5625 0.125 -3.5625 0.125 0 0 Z " fill="#111111" transform="translate(332.5625,343.875)"/>
<path d="M0 0 C5.53846154 3.07692308 5.53846154 3.07692308 7 6 C7.39447548 10.18144011 7.45035186 12.30946048 5.125 15.875 C2.30917893 18.69082107 1.60513342 18.97799515 -2.4375 19.125 C-6 19 -6 19 -9 18 C-9.26554687 18.59167969 -9.53109375 19.18335938 -9.8046875 19.79296875 C-11.03337579 22.06162523 -12.28387757 23.51847605 -14.125 25.3125 C-14.66382813 25.84488281 -15.20265625 26.37726563 -15.7578125 26.92578125 C-17.67720522 28.70138671 -19.6332821 30.40333975 -21.6171875 32.10546875 C-26.6557379 36.49484147 -31.3127569 41.24173806 -36 46 C-41.81915427 51.90732327 -47.68697387 57.62236579 -54 63 C-55.81690949 64.59917067 -57.63015633 66.20252615 -59.4375 67.8125 C-60.70400391 68.93591797 -60.70400391 68.93591797 -61.99609375 70.08203125 C-64.06248234 71.84418571 -64.06248234 71.84418571 -65 74 C-80.51 74 -96.02 74 -112 74 C-112 73.67 -112 73.34 -112 73 C-97.15 73 -82.3 73 -67 73 C-67 72.34 -67 71.68 -67 71 C-90.265 70.505 -90.265 70.505 -114 70 C-114 69.67 -114 69.34 -114 69 C-113.44671021 69.02300171 -112.89342041 69.04600342 -112.32336426 69.06970215 C-106.48122313 69.29616028 -100.64462117 69.40547549 -94.79833984 69.45166016 C-92.62747205 69.48347598 -90.45680437 69.54360523 -88.28759766 69.63427734 C-74.36696279 70.37095609 -74.36696279 70.37095609 -62.1796875 64.58203125 C-58.724786 61.3097286 -55.71381967 57.75198883 -52.74890137 54.03723145 C-50.34011221 51.23132077 -47.61914671 48.90667722 -44.79968262 46.52429199 C-42.68308703 44.73158162 -40.72381765 42.82270289 -38.78125 40.84375 C-38.07613281 40.13089844 -37.37101562 39.41804688 -36.64453125 38.68359375 C-35.93683594 37.96300781 -35.22914063 37.24242187 -34.5 36.5 C-28.6245286 30.51750726 -22.66373823 24.73304005 -16.11108398 19.48803711 C-14.36233705 18.07637247 -13.15509173 16.9353235 -12 15 C-11.79505692 12.40684272 -11.93722712 9.94202304 -12.09375 7.34765625 C-12 5 -12 5 -9.9375 1.875 C-6.21256533 -0.50261787 -4.35125915 -0.68704092 0 0 Z " fill="#2F2E2C" transform="translate(436,228)"/>
<path d="M0 0 C2.875 2.4375 2.875 2.4375 5 5 C7.88265667 7.88265667 18.32323442 6.32326182 22.40844727 6.35009766 C24.25232599 6.36662016 26.09614165 6.39386119 27.93969727 6.43212891 C30.59945883 6.48706785 33.25771514 6.50880066 35.91796875 6.5234375 C37.14642769 6.55744156 37.14642769 6.55744156 38.39970398 6.59213257 C42.66661748 6.57648411 45.22105427 6.24008805 48.56762695 3.46728516 C49.37031006 2.65308105 50.17299316 1.83887695 51 1 C50.67 2.32 50.34 3.64 50 5 C50.99 5.33 51.98 5.66 53 6 C49.54595051 9.74381414 46.6733508 12.35748295 41.44165039 12.68115234 C39.74335601 12.68021412 38.04485269 12.64700238 36.34765625 12.5859375 C35.44752304 12.57744781 34.54738983 12.56895813 33.61997986 12.56021118 C30.76622979 12.52682529 27.91538479 12.45157781 25.0625 12.375 C23.11918165 12.34488108 21.17581868 12.31750865 19.23242188 12.29296875 C14.4871748 12.227083 9.74407859 12.12366758 5 12 C4.70480469 12.79664063 4.40960938 13.59328125 4.10546875 14.4140625 C3 17 3 17 1.3125 18.375 C-2.1096387 19.29990235 -4.58134185 18.85466454 -8 18 C-11.27498169 15.32830441 -12.84248982 13.4175916 -13.3125 9.1875 C-12.92835642 5.2692355 -11.70743683 3.78706733 -9 1 C-5.86128812 -0.56935594 -3.46144178 -0.35201103 0 0 Z " fill="#0F0F0E" transform="translate(312,269)"/>
<path d="M0 0 C0.33 0 0.66 0 1 0 C1.12944612 29.45059717 1.25700943 58.90120209 1.38218227 88.35181772 C1.39719047 91.8825758 1.41221363 95.41333382 1.42724609 98.9440918 C1.43023671 99.64657343 1.43322732 100.34905506 1.43630856 101.07282401 C1.4780149 110.86221173 1.52052055 120.65159569 1.56369197 130.44097705 C1.63823719 147.34475751 1.71116066 164.24854419 1.78125 181.15234375 C1.78536243 182.14286465 1.78536243 182.14286465 1.78955793 183.15339607 C1.98279455 229.76911608 2.07043467 276.38392579 2 323 C2.66 323 3.32 323 4 323 C3.71758359 324.46015291 3.42373386 325.91809793 3.125 327.375 C2.96257813 328.18710937 2.80015625 328.99921875 2.6328125 329.8359375 C2 332 2 332 0 334 C0 223.78 0 113.56 0 0 Z " fill="#A7A4A5" transform="translate(31,74)"/>
<path d="M0 0 C0.33 0 0.66 0 1 0 C1.01030746 0.9806694 1.02061493 1.96133881 1.03123474 2.97172546 C1.12989614 12.30998438 1.23269872 21.64819021 1.33933926 30.9863615 C1.39400892 35.78475242 1.4473253 40.58314966 1.49731445 45.3815918 C1.54580112 50.03065462 1.59814842 54.67966071 1.65294075 59.32865334 C1.6729906 61.08362182 1.69175419 62.83860559 1.70907402 64.59360313 C1.81231829 74.95334739 2.11909518 85.27826484 2.64886189 95.62522888 C2.98974822 102.39236476 3.14682317 109.14165123 3.1328125 115.91796875 C3.13376923 116.99331375 3.13472595 118.06865875 3.13571167 119.17658997 C3.13638008 121.39661723 3.13462182 123.61664663 3.13037109 125.83666992 C3.12490001 129.24988023 3.13041282 132.66296497 3.13671875 136.07617188 C3.1360597 138.25260446 3.13478215 140.42903696 3.1328125 142.60546875 C3.13483673 143.622957 3.13686096 144.64044525 3.13894653 145.68876648 C3.13579437 146.62187149 3.13264221 147.5549765 3.12939453 148.51635742 C3.12859894 149.33682053 3.12780334 150.15728363 3.12698364 151.00260925 C3 153 3 153 2 155 C1.90186801 157.49082076 1.86094452 159.94733789 1.875 162.4375 C1.87113281 163.11876953 1.86726563 163.80003906 1.86328125 164.50195312 C1.8693626 167.60648046 2.01109688 170.03329065 3 173 C2.505 173.99 2.505 173.99 2 175 C1.88017743 176.87844908 1.82270839 178.76100831 1.79467773 180.64306641 C1.77473251 181.82413971 1.75478729 183.00521301 1.73423767 184.22207642 C1.71752518 185.50230682 1.70081268 186.78253723 1.68359375 188.1015625 C1.66281265 189.40829926 1.64203156 190.71503601 1.62062073 192.06137085 C1.56540706 195.536689 1.51599475 199.01206653 1.46777344 202.48748779 C1.41755323 206.033379 1.36186988 209.5791839 1.30664062 213.125 C1.19906772 220.0832585 1.09762083 227.04159496 1 234 C0.67 234 0.34 234 0 234 C0 156.78 0 79.56 0 0 Z " fill="#E2E3E3" transform="translate(32,72)"/>
<path d="M0 0 C0.99 0 1.98 0 3 0 C2.45276171 5.52998695 0.98345147 9.93605907 -1.25 15 C-3.63554419 20.582577 -5.82506853 26.15853934 -7.6875 31.9375 C-9.56383872 37.73820727 -11.65536715 43.374772 -14 49 C-16.73490782 55.57828207 -19.07285089 62.13818121 -21 69 C-21.66 68.01 -22.32 67.02 -23 66 C-23.66 66 -24.32 66 -25 66 C-25.33 67.32 -25.66 68.64 -26 70 C-27 68 -27 68 -26.52539062 66.08105469 C-26.23857422 65.28602539 -25.95175781 64.49099609 -25.65625 63.671875 C-25.32383301 62.7447168 -24.99141602 61.81755859 -24.64892578 60.86230469 C-24.26978027 59.83524414 -23.89063477 58.80818359 -23.5 57.75 C-23.10925293 56.67911133 -22.71850586 55.60822266 -22.31591797 54.50488281 C-18.39270017 43.86610029 -14.26925373 33.30425355 -10.125 22.75 C-9.79508057 21.90659058 -9.46516113 21.06318115 -9.12524414 20.19421387 C-8.17452741 17.76805564 -7.21730023 15.34457596 -6.2578125 12.921875 C-5.97370514 12.19572998 -5.68959778 11.46958496 -5.3968811 10.72143555 C-3.89107454 6.9444271 -2.42801116 3.28049156 0 0 Z " fill="#505050" transform="translate(394,166)"/>
<path d="M0 0 C0.66 0.99 1.32 1.98 2 3 C4.83727325 3.26667539 7.45383045 3.34791234 10.2890625 3.29296875 C11.51669815 3.28660149 11.51669815 3.28660149 12.76913452 3.28010559 C15.38808836 3.26328679 18.00627802 3.22562974 20.625 3.1875 C22.3984264 3.17245726 24.17186484 3.15876814 25.9453125 3.14648438 C30.2971703 3.11337292 34.64845551 3.06156952 39 3 C38.67 3.66 38.34 4.32 38 5 C36.72938721 4.98428955 36.72938721 4.98428955 35.43310547 4.96826172 C32.26856503 4.93402939 29.10411948 4.90902799 25.93945312 4.89013672 C24.5738615 4.8801241 23.20829106 4.86650995 21.84277344 4.84912109 C19.87184088 4.82466427 17.90074716 4.8145428 15.9296875 4.8046875 C14.74616699 4.79421387 13.56264648 4.78374023 12.34326172 4.77294922 C5.99478021 5.20409336 2.52185949 6.99476304 -1.75 11.625 C-4.98958833 15.01470379 -8.19938139 18.04615348 -11.9375 20.875 C-18.01850797 25.57352126 -22.95249619 31.2423911 -28 37 C-28.66 36.67 -29.32 36.34 -30 36 C-28.02 33.525 -28.02 33.525 -26 31 C-29.28158484 31 -31.37881108 33.17656423 -34 35 C-32.60493574 31.74957109 -31.03216606 29.92628208 -28.3125 27.6875 C-25.58814836 25.38530014 -22.99338129 23.0507004 -20.5 20.5 C-18.08934521 18.04551512 -15.60647609 15.7455794 -13 13.5 C-8.23395044 9.38302334 -3.50690993 5.26036489 0 0 Z " fill="#737473" transform="translate(158,377)"/>
<path d="M0 0 C0.33 0 0.66 0 1 0 C1 11.22 1 22.44 1 34 C18.82 34 36.64 34 55 34 C55 34.33 55 34.66 55 35 C37.18 35.33 19.36 35.66 1 36 C0.34 38.31 -0.32 40.62 -1 43 C-2.67986567 47.71962258 -4.55008061 52.32327633 -6.5 56.9375 C-8.5864055 61.89822849 -10.37570545 66.87064878 -12 72 C-12.66 71.01 -13.32 70.02 -14 69 C-15.32 70.32 -16.64 71.64 -18 73 C-15.85790801 65.28284655 -13.18540598 57.80408457 -10.29370117 50.33764648 C-9.80105653 49.05742837 -9.31551065 47.77445863 -8.83666992 46.48901367 C-8.13680598 44.61063096 -7.41444456 42.7406784 -6.69140625 40.87109375 C-6.27060791 39.76693115 -5.84980957 38.66276855 -5.41625977 37.52514648 C-4.94889404 36.69184814 -4.48152832 35.8585498 -4 35 C-2.02 34.505 -2.02 34.505 0 34 C0 22.78 0 11.56 0 0 Z " fill="#747774" transform="translate(423,132)"/>
<path d="M0 0 C-0.55000198 4.58334984 -1.48344676 8.64761551 -3 13 C-1.98421875 12.60167969 -0.9684375 12.20335937 0.078125 11.79296875 C10.23901915 7.8621571 20.2076645 4.72487474 31 3 C31 3.99 31 4.98 31 6 C29.79839233 6.41511841 29.79839233 6.41511841 28.57250977 6.83862305 C25.55647851 7.88505457 22.5431976 8.93898604 19.53149414 9.99780273 C18.2359733 10.45159646 16.93944443 10.90252426 15.6418457 11.3503418 C2.259995 15.33166927 2.259995 15.33166927 -8 24 C-8.33 23.34 -8.66 22.68 -9 22 C-9.66 22 -10.32 22 -11 22 C-11 22.99 -11 23.98 -11 25 C-11.66 25 -12.32 25 -13 25 C-12.3158725 22.90097243 -11.62112166 20.8062851 -10.9140625 18.71484375 C-10.28891452 16.85810082 -9.6802762 14.99573935 -9.0859375 13.12890625 C-4.70369742 0 -4.70369742 0 0 0 Z " fill="#3A3A39" transform="translate(410,200)"/>
<path d="M0 0 C-0.35206948 5.98518119 -1.693477 7.98098635 -6 12 C-6.79019531 12.80179688 -7.58039063 13.60359375 -8.39453125 14.4296875 C-9.59142578 15.64011719 -9.59142578 15.64011719 -10.8125 16.875 C-11.60269531 17.67679688 -12.39289063 18.47859375 -13.20703125 19.3046875 C-14.12871094 20.19414062 -15.05039062 21.08359375 -16 22 C-16.53866699 22.61528564 -17.07733398 23.23057129 -17.63232422 23.86450195 C-21.68524255 28.09356429 -24.56934937 29.46445253 -30.46875 29.68359375 C-32.81348188 29.63748947 -35.15774089 29.55461296 -37.5 29.4375 C-38.70398438 29.40591797 -39.90796875 29.37433594 -41.1484375 29.34179688 C-44.10151915 29.25976683 -47.04945453 29.14504086 -50 29 C-49.67 28.34 -49.34 27.68 -49 27 C-47.16503906 26.77978516 -47.16503906 26.77978516 -44.765625 26.7890625 C-31.48925279 26.47554417 -31.48925279 26.47554417 -20.75 19.375 C-19.24602388 17.78636693 -17.78578205 16.1748076 -16.35498047 14.52001953 C-14.33999799 12.25960856 -12.09407735 10.29851757 -9.8125 8.3125 C-9.11769531 7.68988281 -8.42289062 7.06726563 -7.70703125 6.42578125 C-6 5 -6 5 -4 4 C-3.67 3.01 -3.34 2.02 -3 1 C-1 0 -1 0 0 0 Z " fill="#262524" transform="translate(372,231)"/>
<path d="M0 0 C0.495 0.99 0.495 0.99 1 2 C0.67 2.66 0.34 3.32 0 4 C0.99 4.33 1.98 4.66 3 5 C-0.42630154 8.68993025 -3.28874991 11.35340047 -8.46655273 11.68115234 C-10.12253698 11.68021461 -11.77873659 11.64703167 -13.43359375 11.5859375 C-14.31153091 11.57744781 -15.18946808 11.56895813 -16.0940094 11.56021118 C-18.87646337 11.52683419 -21.65593403 11.45159001 -24.4375 11.375 C-26.3326402 11.34487985 -28.22782619 11.31750765 -30.12304688 11.29296875 C-34.74983357 11.22709507 -39.37441243 11.12368729 -44 11 C-44 10.67 -44 10.34 -44 10 C-43.15236084 9.96241577 -43.15236084 9.96241577 -42.28759766 9.92407227 C-39.73316258 9.80820044 -37.1791045 9.68543463 -34.625 9.5625 C-33.29082031 9.50352539 -33.29082031 9.50352539 -31.9296875 9.44335938 C-30.65351563 9.38051758 -30.65351563 9.38051758 -29.3515625 9.31640625 C-28.56604004 9.27974854 -27.78051758 9.24309082 -26.97119141 9.20532227 C-24.92476504 9.109109 -24.92476504 9.109109 -23 8 C-30.26 7.67 -37.52 7.34 -45 7 C-44.67 6.34 -44.34 5.68 -44 5 C-42.26713745 5.03927612 -42.26713745 5.03927612 -40.49926758 5.0793457 C-36.20372974 5.17000348 -31.90827606 5.22730551 -27.61206055 5.2746582 C-25.75449391 5.29976702 -23.89702573 5.33386134 -22.03979492 5.37719727 C-19.36612642 5.43801124 -16.69376635 5.4662452 -14.01953125 5.48828125 C-13.19226028 5.51408768 -12.36498932 5.5398941 -11.51264954 5.56648254 C-7.04623526 5.56864387 -5.51903002 5.42869919 -1.9362793 2.46948242 C-1.29730713 1.65455322 -0.65833496 0.83962402 0 0 Z " fill="#676765" transform="translate(362,270)"/>
<path d="M0 0 C0.99 0 1.98 0 3 0 C2.45281189 5.69675291 0.85510026 10.27978189 -1.4375 15.5 C-3.65745901 20.61734881 -5.58558776 25.5982246 -7 31 C-7.99 31 -8.98 31 -10 31 C-12.18777466 32.9375006 -12.18777466 32.9375006 -14 35 C-11.89167314 27.49265394 -9.29147961 20.25367086 -6.4375 13 C-5.83905273 11.44732422 -5.83905273 11.44732422 -5.22851562 9.86328125 C-4.84244141 8.87714844 -4.45636719 7.89101562 -4.05859375 6.875 C-3.71111084 5.98554688 -3.36362793 5.09609375 -3.00561523 4.1796875 C-2 2 -2 2 0 0 Z " fill="#767776" transform="translate(394,166)"/>
<path d="M0 0 C0.33 0 0.66 0 1 0 C1.01030746 0.82019119 1.02061493 1.64038239 1.03123474 2.48542786 C1.12916489 10.21054144 1.23167296 17.93557421 1.33933926 25.66055775 C1.39453115 29.63215685 1.44794518 33.60376337 1.49731445 37.57543945 C1.54501308 41.40747682 1.59735789 45.23942499 1.65294075 49.07135582 C1.67333938 50.53417429 1.69205658 51.9970172 1.70907402 53.45987892 C1.73317327 55.50695255 1.76322008 57.55385816 1.79467773 59.60083008 C1.81022202 60.76665115 1.8257663 61.93247223 1.84178162 63.13362122 C1.87774629 66.07234101 1.87774629 66.07234101 3 69 C2.505 69.99 2.505 69.99 2 71 C1.88017743 72.87844908 1.82270839 74.76100831 1.79467773 76.64306641 C1.77473251 77.82413971 1.75478729 79.00521301 1.73423767 80.22207642 C1.71752518 81.50230682 1.70081268 82.78253723 1.68359375 84.1015625 C1.66281265 85.40829926 1.64203156 86.71503601 1.62062073 88.06137085 C1.56540706 91.536689 1.51599475 95.01206653 1.46777344 98.48748779 C1.41755323 102.033379 1.36186988 105.5791839 1.30664062 109.125 C1.19906772 116.0832585 1.09762083 123.04159496 1 130 C0.67 130 0.34 130 0 130 C0 87.1 0 44.2 0 0 Z " fill="#CDCECE" transform="translate(32,176)"/>
<path d="M0 0 C1.32 1.32 2.64 2.64 4 4 C3.28714844 4.6290625 2.57429688 5.258125 1.83984375 5.90625 C-3.36142805 10.5544929 -8.22091245 15.10945425 -12.5625 20.6015625 C-14 22 -14 22 -17 22 C-15.68 20.35 -14.36 18.7 -13 17 C-16.28158484 17 -18.37881108 19.17656423 -21 21 C-19.60493574 17.74957109 -18.03216606 15.92628208 -15.3125 13.6875 C-12.4958376 11.31046186 -9.82835764 8.88404571 -7.25 6.25 C-4.96731752 3.92552928 -2.70514406 1.83949796 0 0 Z " fill="#A0A2A2" transform="translate(145,391)"/>
<path d="M0 0 C0.66 0.33 1.32 0.66 2 1 C4.93961123 10.63539237 5.18370782 20.44887655 2 30 C-10.21 30 -22.42 30 -35 30 C-34.67 29.34 -34.34 28.68 -34 28 C-22.78 28.33 -11.56 28.66 0 29 C0 19.43 0 9.86 0 0 Z " fill="#B3B6B5" transform="translate(330,383)"/>
<path d="M0 0 C0.99 1.32 1.98 2.64 3 4 C2.19175781 4.86882812 1.38351563 5.73765625 0.55078125 6.6328125 C-0.52872487 7.79680171 -1.6081475 8.96086835 -2.6875 10.125 C-3.21794922 10.69476563 -3.74839844 11.26453125 -4.29492188 11.8515625 C-6.87091623 14.63300426 -9.3486186 17.42162724 -11.6875 20.40625 C-14 23 -14 23 -17.3125 23.375 C-18.199375 23.25125 -19.08625 23.1275 -20 23 C-18.56909959 19.76692388 -16.80944011 17.51358374 -14.375 14.9609375 C-13.31539062 13.84332031 -13.31539062 13.84332031 -12.234375 12.703125 C-11.49703125 11.93484375 -10.7596875 11.1665625 -10 10.375 C-9.26265625 9.59898437 -8.5253125 8.82296875 -7.765625 8.0234375 C-5.19921592 5.32589803 -2.63284691 2.63284691 0 0 Z " fill="#2F2F2C" transform="translate(192,390)"/>
<path d="M0 0 C0.33 0 0.66 0 1 0 C1 26.73 1 53.46 1 81 C1.66 81 2.32 81 3 81 C2.71758359 82.46015291 2.42373386 83.91809793 2.125 85.375 C1.96257813 86.18710937 1.80015625 86.99921875 1.6328125 87.8359375 C1 90 1 90 -1 92 C-1.07206242 71.72690062 -0.89580616 51.46879139 -0.53643799 31.19921875 C-0.47422177 27.65758415 -0.41500162 24.11589929 -0.35546875 20.57421875 C-0.23977772 13.71609633 -0.12099032 6.85803094 0 0 Z " fill="#C5C6C4" transform="translate(32,316)"/>
<path d="M0 0 C-0.33 0.99 -0.66 1.98 -1 3 C-6.51204215 5.4607331 -12.09194399 6.83753528 -18 8 C-18 7.01 -18 6.02 -18 5 C-18.81984375 5.30035156 -19.6396875 5.60070312 -20.484375 5.91015625 C-21.56203125 6.29042969 -22.6396875 6.67070312 -23.75 7.0625 C-24.81734375 7.44535156 -25.8846875 7.82820312 -26.984375 8.22265625 C-30.03776383 9.00973446 -31.10042288 8.87807949 -34 8 C-30.25049853 6.85253096 -26.50031435 5.70730922 -22.75 4.5625 C-21.68652344 4.23701172 -20.62304688 3.91152344 -19.52734375 3.57617188 C-18.50253906 3.26357422 -17.47773438 2.95097656 -16.421875 2.62890625 C-15.47924805 2.34088135 -14.53662109 2.05285645 -13.56542969 1.75610352 C-8.83783139 0.36274874 -4.98113805 -0.09579112 0 0 Z " fill="#CFD2D2" transform="translate(459,198)"/>
<path d="M0 0 C6.08723655 -0.02467081 12.17444417 -0.04284604 18.26171875 -0.05493164 C20.33366401 -0.05996852 22.4056057 -0.06679825 24.47753906 -0.07543945 C27.45118082 -0.08753321 30.42477569 -0.09323467 33.3984375 -0.09765625 C34.32868744 -0.10281754 35.25893738 -0.10797882 36.21737671 -0.11329651 C37.07811798 -0.11337204 37.93885925 -0.11344757 38.82568359 -0.11352539 C39.58513275 -0.115746 40.34458191 -0.11796661 41.12704468 -0.12025452 C43 0 43 0 45 1 C45 1.66 45 2.32 45 3 C37.08 3 29.16 3 21 3 C21 2.34 21 1.68 21 1 C14.07 1 7.14 1 0 1 C0 0.67 0 0.34 0 0 Z " fill="#1D1D1C" transform="translate(324,298)"/>
<path d="M0 0 C0.33 0 0.66 0 1 0 C0.65562625 6.00872811 0.14077223 10.72350265 -3 16 C-3.391875 16.78375 -3.78375 17.5675 -4.1875 18.375 C-4.455625 18.91125 -4.72375 19.4475 -5 20 C-5.33 19.01 -5.66 18.02 -6 17 C-7.32 18.32 -8.64 19.64 -10 21 C-6.58536585 9.27642276 -6.58536585 9.27642276 -5 6 C-4.34 5.67 -3.68 5.34 -3 5 C-1.98812105 3.34051852 -0.9873454 1.67419438 0 0 Z " fill="#767777" transform="translate(415,184)"/>
<path d="M0 0 C3 0.25 3 0.25 5 2.25 C5.25 4.75 5.25 4.75 5 7.25 C3 9.25 3 9.25 0 9.5 C-3 9.25 -3 9.25 -5 7.25 C-5.25 4.75 -5.25 4.75 -5 2.25 C-3 0.25 -3 0.25 0 0 Z " fill="#E2E4E3" transform="translate(385,363.75)"/>
<path d="M0 0 C2.5 0.25 2.5 0.25 4.5 2.25 C4.88286803 5.98296326 4.64915785 7.02626323 2.5 10.25 C0 10.5625 0 10.5625 -2.5 10.25 C-4.5 8.25 -4.5 8.25 -4.75 5.25 C-4.43608753 1.48305032 -3.83691092 0.38369109 0 0 Z " fill="#D6D5D4" transform="translate(205.5,372.75)"/>
<path d="M0 0 C0.474375 0.66 0.94875 1.32 1.4375 2 C2.2109375 2.99 2.2109375 2.99 3 4 C3.33 4 3.66 4 4 4 C4 12.25 4 20.5 4 29 C1.24072656 26.24072656 1.48216757 23.78845948 1 20 C0.67 19.67 0.34 19.34 0 19 C-0.08651611 17.58429877 -0.10704904 16.164405 -0.09765625 14.74609375 C-0.09443359 13.89208984 -0.09121094 13.03808594 -0.08789062 12.15820312 C-0.07951172 11.26037109 -0.07113281 10.36253906 -0.0625 9.4375 C-0.05798828 8.53580078 -0.05347656 7.63410156 -0.04882812 6.70507812 C-0.03700225 4.46998686 -0.0205222 2.23502563 0 0 Z " fill="#2C2D2B" transform="translate(330,364)"/>
<path d="M0 0 C3.0625 0.1875 3.0625 0.1875 5.0625 2.1875 C5.3125 4.6875 5.3125 4.6875 5.0625 7.1875 C3.0625 9.1875 3.0625 9.1875 0.0625 9.5 C-0.9275 9.396875 -1.9175 9.29375 -2.9375 9.1875 C-4.9375 6.1875 -4.9375 6.1875 -4.625 3.5625 C-3.63731654 0.1505026 -3.65603948 0.23336422 0 0 Z " fill="#EEEEEF" transform="translate(432.9375,232.8125)"/>
<path d="M0 0 C0 0.99 0 1.98 0 3 C-2.79035046 4.00380916 -5.58214855 5.0031945 -8.375 6 C-9.1690625 6.28617188 -9.963125 6.57234375 -10.78125 6.8671875 C-11.92207031 7.27324219 -11.92207031 7.27324219 -13.0859375 7.6875 C-13.7876709 7.93886719 -14.4894043 8.19023437 -15.21240234 8.44921875 C-17 9 -17 9 -19 9 C-19 8.34 -19 7.68 -19 7 C-21.64 7.33 -24.28 7.66 -27 8 C-24.22498254 6.14998836 -22.36673921 5.38964056 -19.21875 4.4921875 C-18.29449219 4.22792969 -17.37023437 3.96367187 -16.41796875 3.69140625 C-15.45503906 3.42199219 -14.49210937 3.15257812 -13.5 2.875 C-12.53707031 2.59785156 -11.57414062 2.32070312 -10.58203125 2.03515625 C-3.39381927 0 -3.39381927 0 0 0 Z " fill="#6A6A6A" transform="translate(441,203)"/>
<path d="M0 0 C1.9375 0.75 1.9375 0.75 3.9375 2.75 C4.1875 5.25 4.1875 5.25 3.9375 7.75 C1.9375 9.75 1.9375 9.75 -0.5625 10 C-3.0625 9.75 -3.0625 9.75 -5.0625 7.75 C-5.375 4.75 -5.375 4.75 -5.0625 1.75 C-2.0625 -0.25 -2.0625 -0.25 0 0 Z " fill="#E2E3E1" transform="translate(218.0625,253.25)"/>
<path d="M0 0 C2.5 0.25 2.5 0.25 4.5 2.25 C3.93181818 7.81818182 3.93181818 7.81818182 2.5 9.25 C0.0625 9.4375 0.0625 9.4375 -2.5 9.25 C-4.5 7.25 -4.5 7.25 -4.75 4.75 C-4.40058445 1.25584452 -3.49415548 0.34941555 0 0 Z " fill="#D3D3D1" transform="translate(331.5,348.75)"/>
<path d="M0 0 C2.5 0.25 2.5 0.25 4.5 2.25 C4.125 5.375 4.125 5.375 3.5 8.25 C0.625 8.875 0.625 8.875 -2.5 9.25 C-4.5 7.25 -4.5 7.25 -4.75 4.75 C-4.40058445 1.25584452 -3.49415548 0.34941555 0 0 Z " fill="#EAEBEB" transform="translate(308.5,273.75)"/>
<path d="M0 0 C0.99 0 1.98 0 3 0 C2.43179252 5.45479185 1.05362055 9.91059256 -1 15 C-1.66 14.01 -2.32 13.02 -3 12 C-3.66 13.65 -4.32 15.3 -5 17 C-5.66 17 -6.32 17 -7 17 C-2.3 2.3 -2.3 2.3 0 0 Z " fill="#A1A1A2" transform="translate(394,166)"/>
<path d="M0 0 C3.0625 0.1875 3.0625 0.1875 5.0625 2.1875 C4.50694444 6.74305556 4.50694444 6.74305556 3.0625 8.1875 C0.0625 8.3125 0.0625 8.3125 -2.9375 8.1875 C-3.9375 7.1875 -3.9375 7.1875 -4.0625 4.1875 C-3.89838889 0.24883333 -3.89838889 0.24883333 0 0 Z " fill="#EEEEEE" transform="translate(417.9375,285.8125)"/>
<path d="M0 0 C1.32 1.32 2.64 2.64 4 4 C2.09134118 5.82162878 0.17393701 7.6321312 -1.75 9.4375 C-2.28882813 9.95376953 -2.82765625 10.47003906 -3.3828125 11.00195312 C-6.20501951 13.63486577 -8.20982766 15.28129751 -12 16 C-10.86718705 13.05468634 -9.30061061 11.21175262 -7.0625 9.0625 C-4.49520442 6.59539157 -2.70872457 4.14765052 -1 1 C-0.67 0.67 -0.34 0.34 0 0 Z " fill="#7D7F7E" transform="translate(145,391)"/>
<path d="M0 0 C0 0.99 0 1.98 0 3 C-9.9 3 -19.8 3 -30 3 C-29.67 2.34 -29.34 1.68 -29 1 C-24.91671948 0.8320226 -20.83336765 0.66584479 -16.75 0.5 C-15.59113281 0.45230469 -14.43226563 0.40460938 -13.23828125 0.35546875 C-12.12324219 0.31035156 -11.00820313 0.26523437 -9.859375 0.21875 C-8.31975098 0.1559082 -8.31975098 0.1559082 -6.74902344 0.09179688 C-4.5003942 0.01670943 -2.24988257 0 0 0 Z " fill="#F7F9F9" transform="translate(378,375)"/>
<path d="M0 0 C0.33 0.99 0.66 1.98 1 3 C1.66 3.66 2.32 4.32 3 5 C-2.91684902 12.84245077 -2.91684902 12.84245077 -7.4375 13.5 C-8.283125 13.335 -9.12875 13.17 -10 13 C-8.48446596 9.52224821 -6.4226544 7.0442016 -3.875 4.25 C-3.15054688 3.45078125 -2.42609375 2.6515625 -1.6796875 1.828125 C-0.84824219 0.92320312 -0.84824219 0.92320312 0 0 Z " fill="#4B4C48" transform="translate(182,400)"/>
<path d="M0 0 C0.763125 0.20625 1.52625 0.4125 2.3125 0.625 C2.4375 3.5 2.4375 3.5 2.3125 6.625 C1.6525 7.285 0.9925 7.945 0.3125 8.625 C-4.24305556 8.06944444 -4.24305556 8.06944444 -5.6875 6.625 C-5.9375 4.1875 -5.9375 4.1875 -5.6875 1.625 C-2.6875 -0.375 -2.6875 -0.375 0 0 Z " fill="#D1D3D1" transform="translate(248.6875,371.375)"/>
<path d="M0 0 C1.33669261 4.05554357 0.51069076 6.38913123 -1.0390625 10.2421875 C-2.28953598 12.52963899 -3.60980563 13.07476347 -6 14 C-7.26804566 16.0335948 -7.26804566 16.0335948 -8 18 C-9.2153691 14.35389269 -8.65387751 13.36434773 -7.25 9.875 C-6.90453125 8.98554688 -6.5590625 8.09609375 -6.203125 7.1796875 C-5 5 -5 5 -2 4 C-2 3.01 -2 2.02 -2 1 C-1.34 0.67 -0.68 0.34 0 0 Z " fill="#383737" transform="translate(401,221)"/>
<path d="M0 0 C-0.41153737 4.97093824 -0.79600832 9.44508386 -3 14 C-3.66 13.01 -4.32 12.02 -5 11 C-6.485 13.475 -6.485 13.475 -8 16 C-9.31767252 13.36465495 -8.75847597 12.45417473 -7.875 9.6875 C-6.76108809 6.49016027 -4.20247579 0 0 0 Z " fill="#858788" transform="translate(420,174)"/>
<path d="M0 0 C3.5625 0.3125 3.5625 0.3125 5.5 1.8125 C5.850625 2.3075 6.20125 2.8025 6.5625 3.3125 C4.2525 3.3125 1.9425 3.3125 -0.4375 3.3125 C-1.4275 6.2825 -2.4175 9.2525 -3.4375 12.3125 C-4.0975 10.9925 -4.7575 9.6725 -5.4375 8.3125 C-6.4275 7.9825 -7.4175 7.6525 -8.4375 7.3125 C-4.4375 0.40340909 -4.4375 0.40340909 0 0 Z " fill="#2B2E2B" transform="translate(204.4375,367.6875)"/>
<path d="M0 0 C0.33 0 0.66 0 1 0 C1.33 6.27 1.66 12.54 2 19 C2.66 19 3.32 19 4 19 C3.71758359 20.46015291 3.42373386 21.91809793 3.125 23.375 C2.96257813 24.18710937 2.80015625 24.99921875 2.6328125 25.8359375 C2 28 2 28 0 30 C0 20.1 0 10.2 0 0 Z " fill="#B7B6B6" transform="translate(31,378)"/>
<path d="M0 0 C-0.54855348 4.571279 -1.41744803 8.67435795 -3 13 C-2.34 13.33 -1.68 13.66 -1 14 C-1.99 14 -2.98 14 -4 14 C-4.33 13.01 -4.66 12.02 -5 11 C-6.32 12.32 -7.64 13.64 -9 15 C-5.41747573 0 -5.41747573 0 0 0 Z " fill="#484948" transform="translate(410,200)"/>
<path d="M0 0 C0.66 0.33 1.32 0.66 2 1 C-2.32893185 6.18419194 -6.76564995 10.72706118 -12 15 C-12 10.09687565 -8.29800369 7.38658643 -5 4 C-3.37458956 2.61667196 -1.72614587 1.25537882 0 0 Z " fill="#262826" transform="translate(129,173)"/>
<path d="M0 0 C6.93 0 13.86 0 21 0 C21 0.33 21 0.66 21 1 C14.73 1 8.46 1 2 1 C2 1.66 2 2.32 2 3 C7.61 3 13.22 3 19 3 C19 3.33 19 3.66 19 4 C13.06 4.33 7.12 4.66 1 5 C0.67 3.35 0.34 1.7 0 0 Z " fill="#2A2B28" transform="translate(159,376)"/>
<path d="M0 0 C-0.33 0.99 -0.66 1.98 -1 3 C-4.5625 4.1875 -4.5625 4.1875 -8 5 C-8 4.01 -8 3.02 -8 2 C-9.22976563 2.45052734 -9.22976563 2.45052734 -10.484375 2.91015625 C-12.10085938 3.48056641 -12.10085938 3.48056641 -13.75 4.0625 C-14.81734375 4.44535156 -15.8846875 4.82820312 -16.984375 5.22265625 C-19.92280042 5.98010011 -21.22348948 6.07151741 -24 5 C-15.83458727 2.07406044 -8.71717887 0 0 0 Z " fill="#A5A7A7" transform="translate(449,201)"/>
<path d="M0 0 C0 0.33 0 0.66 0 1 C-6.6 1.33 -13.2 1.66 -20 2 C-20 1.01 -20 0.02 -20 -1 C-13.21477495 -3.17127202 -6.69188527 -1.69952642 0 0 Z " fill="#C1C3C2" transform="translate(172,412)"/>
<path d="M0 0 C5.28 0 10.56 0 16 0 C16.33 0.66 16.66 1.32 17 2 C13.57767028 3.14077657 10.91326783 3.09815117 7.3125 3.0625 C5.54326172 3.04896484 5.54326172 3.04896484 3.73828125 3.03515625 C2.83464844 3.02355469 1.93101562 3.01195312 1 3 C0.67 2.01 0.34 1.02 0 0 Z " fill="#282725" transform="translate(323,277)"/>
<path d="M0 0 C2 1 2 1 2.6328125 2.78515625 C3.75543789 7.9795261 4.19321526 12.68658027 4 18 C3.34 18.33 2.68 18.66 2 19 C0.26044666 12.56986533 -0.24991456 6.65050424 0 0 Z " fill="#797B7A" transform="translate(330,383)"/>
<path d="M0 0 C-0.11458693 1.43836751 -0.24209116 2.87570966 -0.375 4.3125 C-0.44460938 5.11300781 -0.51421875 5.91351563 -0.5859375 6.73828125 C-1 9 -1 9 -3 12 C-3.33 11.01 -3.66 10.02 -4 9 C-4.66 9 -5.32 9 -6 9 C-6.33 10.32 -6.66 11.64 -7 13 C-7.33 12.34 -7.66 11.68 -8 11 C-7.07421875 8.65234375 -7.07421875 8.65234375 -5.6875 5.9375 C-5.23761719 5.03902344 -4.78773438 4.14054688 -4.32421875 3.21484375 C-2.4021164 0 -2.4021164 0 0 0 Z " fill="#403F3E" transform="translate(375,223)"/>
<path d="M0 0 C0.33 0.99 0.66 1.98 1 3 C0.36191406 3.62648438 -0.27617187 4.25296875 -0.93359375 4.8984375 C-1.75988281 5.71570313 -2.58617187 6.53296875 -3.4375 7.375 C-4.26121094 8.18710937 -5.08492187 8.99921875 -5.93359375 9.8359375 C-8.03434672 11.82348515 -8.03434672 11.82348515 -9 14 C-8.34 14.33 -7.68 14.66 -7 15 C-8.98 15.99 -8.98 15.99 -11 17 C-11.80078125 15.31640625 -11.80078125 15.31640625 -12 13 C-9.98046875 10.52734375 -9.98046875 10.52734375 -7.1875 7.9375 C-4.41869268 5.34052275 -2.1091548 3.1637322 0 0 Z " fill="#505151" transform="translate(158,377)"/>
<path d="M0 0 C0.97591583 3.38317487 0.85856655 5.5657338 0 9 C0.66 9 1.32 9 2 9 C1.34 10.32 0.68 11.64 0 13 C-0.99 12.67 -1.98 12.34 -3 12 C-3.12375 12.804375 -3.2475 13.60875 -3.375 14.4375 C-3.58125 15.283125 -3.7875 16.12875 -4 17 C-4.66 17.33 -5.32 17.66 -6 18 C-4.23536928 11.89262558 -2.30442525 5.92566493 0 0 Z " fill="#5D5C5B" transform="translate(375,212)"/>
<path d="M0 0 C0.33 0.99 0.66 1.98 1 3 C-3.27146892 7.51555286 -7.49269716 10.2638136 -13 13 C-12.06409496 11.8944811 -11.12620142 10.79064547 -10.1875 9.6875 C-9.66542969 9.07261719 -9.14335938 8.45773437 -8.60546875 7.82421875 C-5.6626898 4.48047722 -5.6626898 4.48047722 -4 3 C-3.34 3 -2.68 3 -2 3 C-2 2.34 -2 1.68 -2 1 C-1.34 0.67 -0.68 0.34 0 0 Z " fill="#545654" transform="translate(137,424)"/>
<path d="M0 0 C0.34641555 4.84981776 -0.40632832 7.8693377 -3 12 C-3.99 12.33 -4.98 12.66 -6 13 C-5.74500159 11.20601116 -5.47046186 9.41479125 -5.1875 7.625 C-5.03667969 6.62726563 -4.88585937 5.62953125 -4.73046875 4.6015625 C-4.00713041 2.02539493 -3.20638766 0 0 0 Z " fill="#404040" transform="translate(380,209)"/>
<path d="M0 0 C0.33 0 0.66 0 1 0 C1 5.61 1 11.22 1 17 C-1.75927344 14.24072656 -1.51783243 11.78845948 -2 8 C-2.33 7.67 -2.66 7.34 -3 7 C-3.04080783 5.00041636 -3.04254356 2.99954746 -3 1 C-2.01 2.485 -2.01 2.485 -1 4 C-0.67 2.68 -0.34 1.36 0 0 Z " fill="#484B49" transform="translate(333,376)"/>
<path d="M0 0 C0 0.99 0 1.98 0 3 C-4.95 4.485 -4.95 4.485 -10 6 C-10.66 5.01 -11.32 4.02 -12 3 C-10.56445975 2.49440092 -9.1264798 1.9957251 -7.6875 1.5 C-6.88699219 1.2215625 -6.08648437 0.943125 -5.26171875 0.65625 C-3 0 -3 0 0 0 Z " fill="#818382" transform="translate(441,203)"/>
<path d="M0 0 C0 0.66 0 1.32 0 2 C-1.26607607 2.53229326 -2.53810412 3.05044544 -3.8125 3.5625 C-4.52019531 3.85253906 -5.22789062 4.14257812 -5.95703125 4.44140625 C-8 5 -8 5 -11 4 C-10.67 3.34 -10.34 2.68 -10 2 C-10.99 1.67 -11.98 1.34 -13 1 C-8.62426048 0.40667939 -4.42471556 -0.13827236 0 0 Z " fill="#E0E4E3" transform="translate(469,196)"/>
<path d="M0 0 C1.65 0.33 3.3 0.66 5 1 C5 2.32 5 3.64 5 5 C3.35 4.67 1.7 4.34 0 4 C0 2.68 0 1.36 0 0 Z " fill="#F5F6F6" transform="translate(397,400)"/>
<path d="M0 0 C-0.33 0.99 -0.66 1.98 -1 3 C-4.0625 4.1875 -4.0625 4.1875 -7 5 C-7.33 4.34 -7.66 3.68 -8 3 C-10.02463255 2.34786708 -10.02463255 2.34786708 -12 2 C-10.7625 1.67 -9.525 1.34 -8.25 1 C-7.55390625 0.814375 -6.8578125 0.62875 -6.140625 0.4375 C-4 0 -4 0 0 0 Z " fill="#525251" transform="translate(422,210)"/>
<path d="M0 0 C-0.33 2.97 -0.66 5.94 -1 9 C-1.66 8.01 -2.32 7.02 -3 6 C-4.32 7.32 -5.64 8.64 -7 10 C-6.69120892 6.39743742 -4.47407556 0 0 0 Z " fill="#939596" transform="translate(420,174)"/>
<path d="M0 0 C2.57766799 2.57766799 2.48357599 4.45880682 3 8 C3.33 8.66 3.66 9.32 4 10 C3.34 10.66 2.68 11.32 2 12 C1.34 12 0.68 12 0 12 C0 8.04 0 4.08 0 0 Z " fill="#A0A3A1" transform="translate(330,393)"/>
<path d="M0 0 C3 3 3 3 3.1875 5.6875 C3.125625 6.450625 3.06375 7.21375 3 8 C3.66 8.33 4.32 8.66 5 9 C4.01 9 3.02 9 2 9 C1.67 8.01 1.34 7.02 1 6 C-0.32 7.32 -1.64 8.64 -3 10 C-2.01 6.7 -1.02 3.4 0 0 Z " fill="#656563" transform="translate(404,205)"/>
<path d="M0 0 C0.33 1.32 0.66 2.64 1 4 C1.33 4.66 1.66 5.32 2 6 C2.33 6.99 2.66 7.98 3 9 C2.01 10.485 2.01 10.485 1 12 C0.67 11.01 0.34 10.02 0 9 C-0.99 9.33 -1.98 9.66 -3 10 C-2.01 6.7 -1.02 3.4 0 0 Z " fill="#70706F" transform="translate(379,201)"/>
<path d="M0 0 C1.32 0 2.64 0 4 0 C3.67 2.31 3.34 4.62 3 7 C2.67 5.68 2.34 4.36 2 3 C1.34 3 0.68 3 0 3 C-0.66 4.65 -1.32 6.3 -2 8 C-2.33 7.34 -2.66 6.68 -3 6 C-2.06553465 3.96855359 -1.06775224 1.96466413 0 0 Z " fill="#BFC0C1" transform="translate(420,166)"/>
<path d="M0 0 C2 2 2 2 2.1953125 4.1640625 C2.16050781 5.38222656 2.16050781 5.38222656 2.125 6.625 C2.10695313 7.44226563 2.08890625 8.25953125 2.0703125 9.1015625 C2.04710937 9.72804688 2.02390625 10.35453125 2 11 C1.01 11.495 1.01 11.495 0 12 C-0.19401633 10.18818595 -0.38004375 8.37551468 -0.5625 6.5625 C-0.66691406 5.55316406 -0.77132813 4.54382813 -0.87890625 3.50390625 C-0.91886719 2.67761719 -0.95882813 1.85132813 -1 1 C-0.67 0.67 -0.34 0.34 0 0 Z " fill="#F1F3F2" transform="translate(307,389)"/>
<path d="M0 0 C3 3 3 3 3.1875 6.1875 C3.125625 7.115625 3.06375 8.04375 3 9 C2.34 8.01 1.68 7.02 1 6 C-0.32 7.32 -1.64 8.64 -3 10 C-2.01 6.7 -1.02 3.4 0 0 Z " fill="#767876" transform="translate(408,195)"/>
<path d="M0 0 C3.125 -0.1875 3.125 -0.1875 6 0 C4.824375 0.86625 4.824375 0.86625 3.625 1.75 C1.19952756 3.82897637 0.14305583 5.09040333 -1 8 C-1.625 5.6875 -1.625 5.6875 -2 3 C-1.34 2.01 -0.68 1.02 0 0 Z " fill="#C8C8C8" transform="translate(430,233)"/>
<path d="M0 0 C1.21236328 0.02707031 1.21236328 0.02707031 2.44921875 0.0546875 C3.37154297 0.08949219 3.37154297 0.08949219 4.3125 0.125 C3.9825 1.115 3.6525 2.105 3.3125 3.125 C1.25 3.8125 1.25 3.8125 -0.6875 4.125 C-0.3575 3.135 -0.0275 2.145 0.3125 1.125 C-2.3275 1.455 -4.9675 1.785 -7.6875 2.125 C-4.48369983 -0.01086678 -3.66810033 -0.10632175 0 0 Z " fill="#BFC2C1" transform="translate(448.6875,199.875)"/>
<path d="M0 0 C0.66 0 1.32 0 2 0 C1.67 2.64 1.34 5.28 1 8 C0.01 7.67 -0.98 7.34 -2 7 C-1.125 2.25 -1.125 2.25 0 0 Z " fill="#5D5E5D" transform="translate(411,192)"/>
<path d="M0 0 C0.33 0 0.66 0 1 0 C0.67 2.97 0.34 5.94 0 9 C-2 6 -2 6 -1.6875 3.375 C-1 1 -1 1 0 0 Z M-4 6 C-3.34 6.33 -2.68 6.66 -2 7 C-2.99 7.66 -3.98 8.32 -5 9 C-4.67 8.01 -4.34 7.02 -4 6 Z " fill="#8B8B8B" transform="translate(391,177)"/>
<path d="M0 0 C0.33 0 0.66 0 1 0 C3.21538462 7.26153846 3.21538462 7.26153846 2.125 11 C1.75375 11.66 1.3825 12.32 1 13 C0.67 13 0.34 13 0 13 C0 8.71 0 4.42 0 0 Z " fill="#D4D5D4" transform="translate(35,384)"/>
<path d="M0 0 C0.66 0.33 1.32 0.66 2 1 C1.67 4.3 1.34 7.6 1 11 C0.67 11 0.34 11 0 11 C-0.19406478 9.35492782 -0.38007935 7.70890406 -0.5625 6.0625 C-0.66691406 5.14597656 -0.77132812 4.22945313 -0.87890625 3.28515625 C-0.91886719 2.53105469 -0.95882812 1.77695312 -1 1 C-0.67 0.67 -0.34 0.34 0 0 Z " fill="#E0E1E0" transform="translate(50,336)"/>
<path d="M0 0 C0.66 0.33 1.32 0.66 2 1 C-0.31 3.31 -2.62 5.62 -5 8 C-5.66 7.67 -6.32 7.34 -7 7 C-4.66666667 4.66666667 -2.33333333 2.33333333 0 0 Z " fill="#C5C6C8" transform="translate(45,54)"/>
<path d="M0 0 C0.33 0.99 0.66 1.98 1 3 C-0.65 4.65 -2.3 6.3 -4 8 C-4.66 7.67 -5.32 7.34 -6 7 C-5.525625 6.566875 -5.05125 6.13375 -4.5625 5.6875 C-2.76313043 3.97690387 -2.76313043 3.97690387 -2 1 C-1.34 0.67 -0.68 0.34 0 0 Z " fill="#2B2C2B" transform="translate(137,424)"/>
<path d="M0 0 C0.99 0.495 0.99 0.495 2 1 C2.75 4.4375 2.75 4.4375 3 8 C2.34 8.66 1.68 9.32 1 10 C-0.1577506 6.52674819 -0.06866652 3.63932552 0 0 Z " fill="#D4D6D6" transform="translate(32,237)"/>
<path d="M0 0 C0.99 0 1.98 0 3 0 C2.67 2.31 2.34 4.62 2 7 C1.34 5.68 0.68 4.36 0 3 C-0.99 3.495 -0.99 3.495 -2 4 C-1.34 2.68 -0.68 1.36 0 0 Z " fill="#BBBABC" transform="translate(394,166)"/>
</svg>
